<?xml version="1.0" encoding="utf-8"?>
<!-- Generator: Adobe Illustrator 26.0.0, SVG Export Plug-In . SVG Version: 6.00 Build 0)  -->
<svg version="1.1" id="Camada_1" xmlns="http://www.w3.org/2000/svg" xmlns:xlink="http://www.w3.org/1999/xlink" x="0px" y="0px"
	 viewBox="0 0 300 230" style="enable-background:new 0 0 300 230;" xml:space="preserve">
<style type="text/css">
	.st0{fill:#FFFFFF;}
</style>
<path class="st0" d="M166.4,80.7c0,2.3,0.1,4.5,0,6.8c-0.1,1.8-0.2,3.6-0.5,5.4c-0.4,2.5-0.9,5.1-1.6,7.6c-0.6,2-1.2,4-2,5.9
	c-0.7,1.8-1.5,3.6-2.3,5.3c-0.9,1.8-1.9,3.4-3,5.1c-0.7,1.2-1.5,2.4-2.3,3.6c-0.5,0.7-1,1.4-1.6,2c-0.8,1-1.6,1.9-2.4,2.9
	c-0.6,0.7-1.2,1.4-1.9,2c-0.3,0.2-0.6,0.4-1,0.4c-0.3,0-0.7,0-1,0c-0.7,0-1.3-0.6-1.3-1.3c-0.1-0.9,0.3-1.8,1-2.4
	c0.9-1,1.8-2,2.7-3.1c0.7-0.9,1.5-1.7,2.1-2.6c0.7-0.9,1.4-1.9,2.1-3c0.9-1.5,1.8-3.1,2.7-4.7c2.3-4.2,4-8.7,5.1-13.4
	c0.8-3,1.2-6.1,1.4-9.2c0.1-4.3,0.2-8.5,0.2-12.8c-0.1-2.9-0.9-5.7-2.4-8.1c-1-1.7-2.2-3.1-3.7-4.4c-1.3-1.1-2.8-2-4.4-2.7
	c-1.8-0.8-3.8-1.3-5.8-1.3c-1.6-0.1-3.2,0-4.8,0.3c-1.6,0.4-3.2,1.1-4.7,1.9c-1.5,0.8-2.9,1.9-4.1,3.2c-1.5,1.6-2.7,3.5-3.5,5.5
	c-1.1,2.6-1.2,5.3-1.2,8c0,2.7,0,5.5-0.2,8.2c-0.2,2.6-0.9,5.1-2.1,7.4c-0.4,0.9-0.9,1.7-1.4,2.6c-0.2,0.4-0.5,0.7-0.8,1
	c-0.4,0.5-0.7,0.9-1.1,1.4c-1,1.1-1.9,2.2-2.9,3.4c-0.1,0.1-0.2,0.2-0.4,0.4c-0.7,0.7-1.3,1.5-2,2.2c-0.3,0.4-0.7,0.6-1.2,0.6
	c-0.2,0-0.4,0-0.6,0c-0.8,0.1-1.2-0.4-1.5-0.9c-0.4-0.6-0.3-1.3,0.1-1.9c0.5-0.7,1.1-1.3,1.7-1.9c0.9-1,1.7-2,2.6-3
	c0.2-0.3,0.5-0.5,0.7-0.8c2.5-2.8,4.2-6.2,4.9-9.9c0.2-1.4,0.3-2.8,0.3-4.2c0.1-3,0.1-6,0.2-8.9c0.1-1.6,0.5-3.2,1.1-4.7
	c0.4-1.1,0.9-2.1,1.5-3.1c0.4-0.7,0.8-1.3,1.3-1.9c0.6-0.8,1.3-1.6,1.9-2.4c0.5-0.5,1-1,1.6-1.4c2.9-2.5,6.5-4.1,10.2-4.6
	c1.9-0.3,3.9-0.3,5.8-0.1c1.8,0.2,3.6,0.6,5.3,1.3c1.8,0.6,3.4,1.6,4.9,2.8c1.2,1.1,2.5,2.2,3.6,3.4c0.7,0.8,1.3,1.6,1.8,2.5
	c1.5,2.3,2.4,4.9,2.8,7.6c0.1,1.3,0.2,2.6,0.2,3.9C166.4,77.7,166.4,79.2,166.4,80.7z"/>
<path class="st0" d="M158.6,80.6c0,2.4,0.2,4.9,0,7.3c-0.2,2.6-0.6,5.1-1.1,7.7c-0.6,3.1-1.6,6.2-2.9,9.1c-0.8,1.9-1.7,3.7-2.7,5.5
	c-0.8,1.5-1.7,3-2.8,4.4c-1.1,1.7-2.4,3.3-3.8,4.8c-1.4,1.5-2.7,3-4.1,4.5c-0.7,0.8-1.4,1.5-2,2.3c-0.3,0.4-0.6,0.8-1,1.2
	c-0.2,0.2-0.5,0.3-0.8,0.3c-0.4,0-0.8,0-1.3,0c-0.4,0-0.8-0.3-1-0.6c-0.4-0.9-0.3-1.9,0.3-2.6c0.9-1,1.7-1.9,2.6-2.9
	c1.1-1.2,2.3-2.4,3.5-3.7c0.7-0.7,1.2-1.6,1.9-2.3c1.4-1.7,2.7-3.5,3.9-5.4c0.6-0.9,1.1-1.9,1.7-2.9c1.2-2.2,2.2-4.5,3-6.8
	c1.2-3.3,2-6.7,2.4-10.2c0.4-2.7,0.3-5.4,0.3-8c0-2.6,0-5.2,0-7.8c0-1.3-0.5-2.6-1.3-3.6c-0.5-0.7-1-1.4-1.6-2.1
	c-1.4-1.4-3.2-2.2-5.1-2.5c-1.5-0.2-3-0.1-4.4,0.4c-1.6,0.5-3,1.4-4.1,2.7c-1.7,1.8-2.5,4.2-2.4,6.7c0,2.9-0.1,5.9-0.2,8.8
	c-0.1,3.1-0.8,6.1-1.9,9c-0.7,1.7-1.4,3.3-2.3,4.9c-0.7,1.2-1.5,2.3-2.3,3.3c-0.8,1-1.6,1.9-2.4,2.8c-1,1.1-2.1,2.2-3.1,3.4
	c-0.5,0.6-1,1.2-1.6,1.8c-0.6,0.6-1.4,0.4-2.1,0.3c-0.6-0.2-1-0.8-1-1.5c0-0.7,0.2-1.4,0.7-1.8c0.7-0.7,1.4-1.5,2-2.2
	c1.2-1.3,2.4-2.7,3.6-4.1c0.6-0.7,1.1-1.4,1.6-2.2c0.7-1.1,1.4-2.2,2.1-3.3c0.3-0.7,0.7-1.4,0.9-2.1c0.9-2,1.4-4,1.7-6.2
	c0.2-1.9,0.2-3.7,0.3-5.6c0.1-2.4,0.1-4.9,0.2-7.3c0.1-1.9,0.8-3.8,1.9-5.4c0.6-0.9,1.2-1.8,1.9-2.5c0.9-0.9,2-1.6,3.1-2.3
	c1.3-0.8,2.7-1.3,4.2-1.5c1.1-0.1,2.1,0,3.2-0.1c2.3,0,4.3,0.8,6.2,1.9c1.2,0.8,2.3,1.8,3.3,2.9c1.5,1.6,2.4,3.7,2.7,5.9
	c0.2,1.9,0.2,3.9,0.2,5.9C158.7,79.6,158.7,80.1,158.6,80.6L158.6,80.6z"/>
<path class="st0" d="M150.9,81.3c0,2,0.1,4,0,6c0,1.3-0.2,2.6-0.4,3.9c-0.5,2.4-1.1,4.8-1.8,7.2c-0.8,2.1-1.6,4.2-2.6,6.2
	c-1,2.1-2.2,4.2-3.7,6c-0.8,1.2-1.7,2.3-2.7,3.3c-1.4,1.6-2.8,3.1-4.1,4.6l-2.3,2.5c-0.7,0.8-1.5,1.6-2.2,2.4
	c-0.5,0.6-1.2,0.6-1.9,0.4c-0.7-0.1-1.2-0.7-1.3-1.3c-0.2-0.7,0-1.5,0.6-2.1c1-1,1.9-2.1,2.9-3.1c0.7-0.8,1.5-1.6,2.2-2.4
	c1-1.1,2-2.3,3-3.5c0.8-0.9,1.5-1.9,2.2-2.8c0.6-0.7,1.1-1.5,1.6-2.2c0.8-1.4,1.5-2.8,2.3-4.2c1.1-2.2,2-4.5,2.7-6.9
	c0.6-2,1-4.1,1.3-6.2c0.5-4.5,0.2-9,0.3-13.6c0-0.8-0.6-1.5-1.4-1.5c-0.1,0-0.1,0-0.2,0c-0.5,0-1.1-0.1-1.5,0.4
	c-0.4,0.3-0.6,0.8-0.6,1.3c0,2.8-0.1,5.5-0.1,8.3c-0.1,4.3-0.9,8.6-2.4,12.6c-0.5,1.3-1,2.6-1.7,3.8c-1,1.7-2,3.4-3.2,5.1
	c-0.9,1.3-1.9,2.4-3,3.6c-0.6,0.7-1.3,1.4-1.9,2.1c-1.3,1.5-2.6,2.9-3.9,4.3c-0.6,0.7-1.2,1.3-1.8,2c-0.3,0.3-0.7,0.5-1.1,0.5
	c-0.3,0-0.6,0-0.9,0c-0.7-0.1-1.2-0.6-1.3-1.3c-0.1-0.8,0.2-1.7,0.8-2.3c0.8-0.7,1.5-1.5,2.2-2.3c1.3-1.4,2.6-2.8,3.9-4.3
	c1-1.2,2-2.4,3-3.6c1.1-1.4,2.1-2.9,3-4.4c1.6-2.8,2.8-5.9,3.5-9.1c0.8-3,0.8-6.1,0.8-9.2c0-1.8,0-3.7,0.1-5.5c0-1,0.1-2,0.7-2.9
	c1.1-1.7,2.6-3,4.8-3c1.2,0,2.3,0.1,3.3,0.8c0.7,0.5,1.3,1.1,1.8,1.8c0.8,0.8,0.8,1.8,0.8,2.9C150.9,77.4,150.9,79.4,150.9,81.3z"/>
<path class="st0" d="M194.8,73.1c-0.6-0.6-1.2-1.1-1.7-1.7c-0.5-0.5-0.9-1.2-1-2c-0.1-1.1,0.4-1.9,1.3-2.5c0.6-0.4,1.2-0.8,1.8-1.3
	c0.8-0.5,1-1.6,0.5-2.5c-0.1-0.1-0.2-0.2-0.3-0.3c-0.8-0.9-1.7-1.7-2.6-2.6c-1.8-1.8-3.1-4.1-3.8-6.5c-0.5-2.1-0.7-4.3-0.5-6.5
	c0-0.6,0.1-1.2,0.1-1.8c0-1.5-0.3-2.9-0.8-4.2c-0.8-2.2-2.1-4.3-3.7-6c-1.6-1.6-3.3-3.2-5-4.7c-0.6-0.5-1.3-0.9-2-1.2
	c-0.1-0.1-0.3-0.2-0.4-0.3c-0.7-0.6-0.9-1.5-0.5-2.1c0.5-0.6,1.4-0.8,2.2-0.5c1.5,0.7,2.8,1.6,4,2.7c1.2,1.1,2.4,2.2,3.5,3.4
	c0.8,0.8,1.4,1.7,2.1,2.5c1.8,2.2,2.8,4.8,3.5,7.4c0.3,1.2,0.4,2.5,0.2,3.7c-0.2,3.2-0.2,6.5,1.5,9.4c0.7,1.2,1.6,2.3,2.7,3.2
	c0.7,0.7,1.5,1.5,2.1,2.3c0.7,0.7,1,1.7,1,2.7c0,0.9-0.1,1.8-0.5,2.6c-0.5,0.9-1.3,1.7-2.2,2.3l-0.3,0.2c-0.8,0.5-0.6,0.5,0,1
	c0.6,0.5,1,0.9,1.4,1.4c1,1,1,2.7,0,3.7c-0.1,0.1-0.2,0.2-0.3,0.2c-0.5,0.3-0.4,0.6-0.2,1.1c0.8,1.5,0.6,2.6-0.8,3.6
	c-0.2,0.2-0.5,0.4-0.8,0.6c-1,0.6-1.2,0.9-0.9,2.1s0.7,2.1,1,3.2c0.5,1.4,0.7,2.8,0.1,4.2c-0.4,0.9-1.1,1.7-2,2.2
	c-1.4,0.9-3,1-4.5,1.3c-2.7,0.4-5.4,1.2-7.9,2.1c-1.8,0.7-3.5,1.5-4.8,2.8c-1.3,1.4-2.6,2.9-3.8,4.4c-0.2,0.3-0.5,0.6-0.7,1
	c-1.5,2.5-2.8,5.2-4,7.9c-0.7,1.8-1.5,3.7-2.2,5.5c-1,2.6-2,5.3-3,8c-0.3,0.9-0.6,1.8-0.9,2.8c-0.2,0.7-0.9,1.1-1.6,0.9c0,0,0,0,0,0
	c-0.8-0.1-1.4-0.7-1.3-1.5c0.2-1.1,0.5-2.2,0.9-3.3c0.6-1.9,1.3-3.8,2.1-5.7c0.7-1.8,1.4-3.6,2.1-5.4c0.6-1.5,1.1-2.9,1.8-4.3
	c0.9-1.8,2-3.6,2.9-5.4c1-1.7,2.1-3.4,3.4-4.9c1.1-1.3,2.3-2.5,3.7-3.5c1.9-1.3,3.9-2.2,6.1-2.9c2.6-0.9,5.4-1.4,8.1-1.8
	c0.7-0.1,1.3-0.3,1.9-0.6c0.9-0.5,1.1-1.1,0.8-2.3c-0.3-1.1-0.8-2.1-1.1-3.2c-0.5-1.6-0.6-3.2,0.3-4.7c0.4-0.7,1-1.2,1.7-1.5
	c0.4-0.2,0.4-0.4,0.3-0.7c-0.5-1-0.5-2.2,0-3.1C194.2,73.7,194.5,73.4,194.8,73.1z"/>
<path class="st0" d="M101.1,73c0.1-3.1,0.5-6.1,1.4-9.1c0.7-2.5,1.6-4.9,2.7-7.2c0.7-1.3,1.3-2.7,2.1-4c0.8-1.3,1.7-2.6,2.6-3.8
	c0.9-1.1,1.8-2.2,2.7-3.2c0.5-0.7,1.1-1.3,1.7-1.9c1-0.9,1.9-1.7,3-2.6c0.7-0.6,1.5-1.1,2.3-1.7c0.9-0.6,1.8-1.3,2.8-1.9
	c1.5-0.9,3.1-1.7,4.7-2.4c1.5-0.7,3-1.3,4.6-1.7c2-0.6,4.1-1.1,6.2-1.5c3.4-0.6,6.8-0.7,10.3-0.5c1.1,0.1,2.3,0.2,3.4,0.4
	c0.8,0.1,1.5,0.7,1.6,1.5c0.2,0.9-0.3,1.7-1,2.1c-0.2,0.1-0.5,0.1-0.7,0.1c-2.4-0.1-4.7-0.1-7.1-0.2c-3.2,0-6.5,0.4-9.6,1.3
	c-3,0.8-5.9,1.9-8.6,3.4c-1.7,0.9-3.3,2.1-4.9,3.2c-2.4,1.6-4.5,3.7-6.5,5.8c-0.7,0.8-1.4,1.7-2.1,2.6c-0.8,1.2-1.6,2.4-2.4,3.6
	c-0.2,0.3-0.3,0.6-0.5,0.9c-0.7,1.3-1.4,2.6-1.9,3.9c-0.8,2.1-1.5,4.3-2.1,6.4c-0.6,2.2-0.8,4.5-1,6.8c-0.1,0.7-0.1,1.4-0.8,1.9
	c-0.7,0.6-1.7,0.6-2.4,0c-0.4-0.3-0.6-0.9-0.6-1.4C101.1,73.6,101.1,73.3,101.1,73z"/>
<path class="st0" d="M181.8,78.3c0,1.9,0,3.8,0,5.7c-0.1,0.8-0.7,1.5-1.6,1.5c-1,0.2-1.9-0.4-2.2-1.4c0-0.2-0.1-0.4,0-0.6
	c0-1.7-0.1-3.4-0.1-5.2c-0.1-2.2,0-4.4-0.2-6.5c-0.3-2.8-1-5.6-2.1-8.2c-0.6-1.3-1.1-2.6-1.8-3.8c-0.5-1-1.2-1.9-1.8-2.9
	c-1.5-2.1-3.2-4.1-5.1-5.8c-0.9-0.8-1.9-1.6-3-2.3c-1.2-0.9-2.5-1.7-3.9-2.4c-2.3-1.2-4.7-2.1-7.3-2.7c-2.2-0.5-4.4-0.8-6.7-0.9
	c-1.2,0-2.4-0.1-3.6-0.2c-0.6-0.1-1.1-0.7-1.1-1.3c-0.1-0.7,0-1.4,0.7-1.9c0.3-0.2,0.6-0.3,0.9-0.3c1.9,0,3.8-0.1,5.7,0
	c1.9,0.2,3.7,0.5,5.5,0.9c3.4,0.7,6.4,2.2,9.4,3.8c1.3,0.7,2.5,1.7,3.8,2.6c2.2,1.5,3.8,3.5,5.7,5.3c0.7,0.7,1.3,1.7,1.9,2.5
	c1,1.4,1.9,2.8,2.7,4.4c2.9,5.6,4.3,11.8,4,18.1C181.8,77.4,181.8,77.9,181.8,78.3z"/>
<path class="st0" d="M145.7,23.8c1.7,0.1,3.9,0.1,6,0.3c2.9,0.3,5.8,0.9,8.6,1.8c2.3,0.7,4.5,1.5,6.7,2.6c1.5,0.8,3,1.5,4.5,2.2
	c0.9,0.5,1.8,1.1,2.6,1.7c1.3,0.9,2.6,1.8,3.8,2.8c1.1,0.9,2.2,2,3.3,3c0.6,0.6,1.1,1.2,1.7,1.7c0.6,0.7,0.6,1.7,0,2.4
	c-0.9,0.9-2.2,0.9-3.1,0c0,0,0,0,0,0c-0.8-0.9-1.7-1.7-2.6-2.5s-1.9-1.5-2.9-2.3c-0.9-0.7-1.7-1.3-2.6-1.9c-0.6-0.4-1.3-0.8-1.9-1.2
	c-1.5-0.8-3-1.6-4.5-2.4c-0.7-0.4-1.5-0.7-2.3-1c-2.4-0.9-4.8-1.7-7.3-2.2c-1.6-0.3-3.2-0.6-4.8-0.8c-1.9-0.2-3.8-0.3-5.8-0.4
	c-1.8,0-3.5,0.1-5.3,0.3c-1.9,0.2-3.7,0.6-5.5,0.9c-0.7,0.2-1.4,0-1.9-0.5c-0.7-0.6-0.5-1.4-0.4-2.1c0.2-0.6,0.7-1.1,1.3-1.2
	c2.3-0.6,4.6-1,7-1.1C141.9,23.9,143.6,23.9,145.7,23.8z"/>
<path class="st0" d="M106.7,91.1c-0.7,0.1-1.4-0.2-1.6-0.9c-0.3-0.8-0.1-1.6,0.4-2.3c0.7-0.8,1.5-1.6,2.2-2.4
	c0.6-0.7,0.9-1.5,0.9-2.3c0-3.4,0.1-6.8,0.2-10.2c0.2-2.7,0.7-5.4,1.5-8c0.8-2.6,1.9-5.1,3.2-7.4c0.9-1.7,2-3.2,3.2-4.7
	c0.7-0.8,1.4-1.6,2.1-2.3c0.2-0.2,0.5-0.3,0.7-0.3c0.1,0,0.3,0,0.4,0c0.5,0,1-0.1,1.4,0.4c0.4,0.6,0.6,1.4,0.4,2.1
	c-0.1,0.3-0.3,0.6-0.5,0.8c-0.8,1-1.7,1.9-2.5,2.9c-1.2,1.7-2.2,3.4-3.1,5.3c-1.4,2.8-2.3,5.7-2.8,8.8c-0.3,2.3-0.3,4.7-0.4,7
	c-0.1,1.8,0,3.6-0.1,5.4c0,1.3-0.3,2.7-1,3.8c-0.3,0.5-0.6,0.9-1,1.3c-0.7,0.8-1.4,1.5-2.1,2.3C107.8,91.1,107.8,91.1,106.7,91.1z"
	/>
<path class="st0" d="M174.3,80c-0.1,2.9-0.1,5.8-0.3,8.8c-0.1,1.5-0.3,3-0.5,4.5c-0.1,0.6-0.4,1.1-0.9,1.4c-0.1,0.1-0.3,0.1-0.4,0.1
	c-0.3,0-0.6,0-0.9,0c-0.8,0.1-1.5-0.6-1.6-1.4c0-0.1,0-0.1,0-0.2c0-0.8,0.1-1.7,0.2-2.5c0.2-2.4,0.3-4.9,0.3-7.3c0-2.9,0-5.8,0-8.8
	c0-2.3-0.4-4.6-1.2-6.7c-0.6-1.5-1.2-3-2-4.5c-0.7-1.2-1.5-2.3-2.3-3.3c-0.9-1.1-1.8-2-2.8-3c-0.8-0.8-0.5-2.7,0.5-3
	c0.8-0.3,1.6-0.4,2.3,0.4c0.9,1,1.9,1.8,2.8,2.8c0.7,0.9,1.4,1.8,2,2.7c0.7,1.1,1.4,2.3,1.9,3.4c1.2,2.5,2,5.1,2.4,7.8
	C174.3,74.1,174.2,77,174.3,80z"/>
<path class="st0" d="M145.2,16.2c1.6,0,3.1-0.1,4.7,0c2.2,0.2,4.4,0.5,6.6,0.8c0.9,0.1,1.8,0.4,2.6,0.5c0.7,0.1,1.2,0.6,1.4,1.2
	c0.3,1-0.1,2.3-1,2.4c-0.7,0.1-1.3,0.1-2,0c-3-0.6-6-1-9.1-1.2c-2.4-0.1-4.9-0.1-7.3,0c-3.8,0.2-7.5,0.9-11.1,1.9
	c-2.4,0.7-4.7,1.5-7,2.5c-0.6,0.3-1.2,0.6-1.9,0.8c-0.7,0.2-1.4,0.2-2.1,0c-0.7-0.2-1.1-1.6-0.8-2.3c0.2-0.6,0.6-1,1.2-1.2
	c1.7-0.7,3.3-1.4,5-2c2.9-1.1,5.8-2,8.8-2.5c3.6-0.8,7.2-1.1,10.9-0.9C144.6,16.2,144.9,16.2,145.2,16.2z"/>
<path class="st0" d="M116.4,75.1c0-3.4,0.7-6.7,1.9-9.9c0.5-1.3,1.1-2.6,1.8-3.8c0.8-1.2,1.6-2.4,2.5-3.5c0.7-1,1.4-1.9,2.3-2.7
	c1.2-1.1,2.5-2.2,3.9-3.1c1.1-0.8,2.3-1.6,3.6-2.2c1.3-0.6,2.6-1.2,4-1.6c1.5-0.4,2.9-0.8,4.4-1c0.7-0.2,1.4,0,1.9,0.5
	c0.9,0.7,0.7,2.9-0.8,3.2c-1.1,0.3-2.3,0.5-3.4,0.8c-1.1,0.3-2.2,0.8-3.3,1.2c-0.7,0.3-1.4,0.6-2,1c-1,0.6-2,1.2-3,1.8
	c-1,0.7-1.9,1.6-2.7,2.4c-1,1-1.9,2.1-2.7,3.2c-0.7,1.1-1.4,2.2-1.9,3.4c-1.5,3.1-2.4,6.4-2.6,9.9c0,0.6-0.1,1.3-0.2,1.9
	c-0.1,0.6-0.7,1-1.3,0.9c-0.3,0-0.5,0-0.8,0c-1.1,0.1-1.6-0.7-1.6-1.7C116.4,75.6,116.4,75.3,116.4,75.1z"/>
<path class="st0" d="M105.7,46.8c-0.7,0.1-1.4-0.3-1.6-1c-0.4-0.7-0.3-1.5,0.3-2.1c0.9-1,1.7-2,2.6-3c0.6-0.7,1.2-1.4,1.9-2.1
	c0.9-0.9,1.9-1.7,2.9-2.5c0.8-0.7,1.6-1.4,2.5-2c1.4-1,2.8-1.9,4.2-2.8s2.9-1.7,4.4-2.4c0.8-0.4,1.7-0.8,2.5-1.1
	c0.7-0.3,1.5-0.1,2,0.4c1,0.8,0.7,2.7-0.5,3.2c-1.4,0.6-2.9,1.3-4.3,2.1c-0.9,0.4-1.7,1-2.5,1.5c-0.8,0.5-1.5,0.9-2.2,1.4
	c-0.7,0.5-1.5,1.1-2.3,1.6c-2.3,1.7-4.2,3.8-6.2,5.8c-0.7,0.8-1.3,1.7-2,2.4C106.7,46.8,106.7,46.8,105.7,46.8z"/>
<path class="st0" d="M187.4,62.3c0,1.1-0.5,1.7-1.6,1.9c-0.9,0.1-1.8-0.4-2.1-1.3c-0.9-2.6-2-5-3.3-7.4c-0.7-1.2-1.5-2.4-2.3-3.5
	c-0.9-1.3-2-2.4-3-3.7c-0.5-0.6-0.6-1.4-0.2-2.1c0.2-0.6,0.8-1,1.5-1c0.6-0.1,1.3,0.1,1.7,0.6c0.8,0.9,1.6,1.8,2.3,2.8
	c1,1.3,1.9,2.6,2.8,3.9c0.8,1.2,1.4,2.5,2,3.8c0.7,1.5,1.3,3.1,1.9,4.6C187.2,61.4,187.3,61.9,187.4,62.3z"/>
<path class="st0" d="M120.1,83.6c0,2.4-0.6,4.8-1.9,6.8c-0.6,1-1.3,2-2.1,2.9c-0.8,1-1.6,1.9-2.4,2.8c-0.5,0.5-1,1-1.5,1.5
	c-0.2,0.3-0.4,0.5-0.6,0.8c-0.8,0.6-1.8,0.6-2.6,0c-0.2-0.1-0.3-0.3-0.4-0.5c-0.3-0.7,0-2.2,0.5-2.7c0.9-0.9,1.8-1.9,2.6-2.9
	c1-1.2,2.2-2.3,3-3.7c0.9-1.7,1.5-3.5,1.5-5.5c0-0.8,0.2-1.5,0.9-1.9c0.7-0.3,1.4-0.3,2.1,0c0.6,0.3,0.8,0.9,0.8,1.5
	C120.2,83.1,120.1,83.3,120.1,83.6z"/>
<path class="st0" d="M159.2,33.9c0.9-0.2,1.7,0.4,2.5,0.7c1.2,0.5,2.4,1,3.6,1.6c1.4,0.8,2.8,1.6,4.1,2.4c0.7,0.4,1.4,1,2.1,1.4
	c0.4,0.2,0.7,0.6,0.8,1c0.3,0.6,0.2,1.4-0.1,1.9c-0.3,0.3-0.6,0.5-1,0.6c-0.4,0.1-0.9,0.1-1.3,0c-0.2,0-0.4-0.1-0.5-0.2
	c-1.1-0.7-2.1-1.5-3.2-2.1s-2.1-1.3-3.2-1.8c-1.1-0.5-2.3-1-3.4-1.5c-0.5-0.2-1.1-0.4-1.6-0.7c-0.5-0.2-0.8-0.7-0.7-1.2
	c0-0.2,0-0.5,0-0.7c-0.1-0.7,0.5-1.4,1.2-1.5c0.1,0,0.2,0,0.2,0L159.2,33.9z"/>
<path class="st0" d="M135.8,40.6c0.8-0.2,1.4,0.3,1.8,0.8c0.4,0.5,0.4,1.2,0.1,1.8c-0.3,0.4-0.7,0.8-1.2,1c-1,0.5-2.2,0.7-3.2,1.2
	c-1.3,0.6-2.6,1.2-3.9,1.9c-1,0.5-1.9,1.1-2.9,1.7c-0.7,0.4-1.6,0.3-2.3-0.2c-0.5-0.3-0.7-1.4-0.5-2.1c0.1-0.5,0.5-0.9,0.9-1.2
	c1.1-0.6,2.2-1.3,3.3-1.9c2.1-1.3,4.5-2.1,6.8-2.9C135.1,40.6,135.4,40.6,135.8,40.6z"/>
<path class="st0" d="M158.7,51.3c0,1.5-1.1,2.3-2.4,1.9c-0.6-0.2-1.2-0.4-1.8-0.7c-1.8-0.7-3.7-1.2-5.6-1.5c-0.6,0-1.1-0.4-1.4-0.9
	c-0.3-0.6-0.3-1.3,0-1.9c0.2-0.6,0.9-1,1.5-1c0.9,0.1,1.7,0.2,2.6,0.4c1.9,0.4,3.8,1,5.6,1.9c0.3,0.2,0.7,0.4,1,0.6
	C158.6,50.4,158.8,50.8,158.7,51.3z"/>
<path class="st0" d="M164.8,22c-0.2-1.5,1.3-2.3,2.8-1.7c1.8,0.8,3.6,1.6,5.4,2.4c0.7,0.3,1.1,0.9,1.2,1.6c0.1,0.9-0.3,2-1.3,2.2
	c-0.5,0.1-1.1,0.1-1.6-0.1c-1.8-0.8-3.6-1.6-5.3-2.4C165.4,23.6,164.6,22.9,164.8,22z"/>
<path class="st0" d="M8.4,154.5h10.3c1.4,0,2.9,0.2,4.2,0.7c1.1,0.4,2.2,1,3.1,1.9c0.8,0.8,1.4,1.7,1.8,2.8c0.4,1.1,0.6,2.2,0.6,3.4
	c0,1.7-0.4,3.3-1.2,4.7c-0.8,1.4-2,2.5-3.3,3.2l6.2,11.1h-6.9L18,172h-3.5v10.2H8.4V154.5z M18.4,167c2.1,0,3.8-1.8,3.7-3.9
	c0-0.9-0.4-1.8-1-2.5c-0.7-0.7-1.7-1-2.7-1h-3.9v7.3L18.4,167z"/>
<path class="st0" d="M31.5,154.5h19v5.5H37.8v5.4h9.9v5.3h-9.9v6h13.6v5.6H31.5V154.5z"/>
<path class="st0" d="M53.6,154.5h10.5c2,0,4,0.3,5.9,0.8c1.7,0.5,3.3,1.4,4.7,2.5c1.4,1.2,2.4,2.7,3.1,4.4c0.8,2,1.1,4.1,1.1,6.3
	c0,2.1-0.3,4.1-1.1,6c-0.7,1.6-1.8,3.1-3.1,4.3c-1.4,1.2-3,2.1-4.7,2.6c-1.9,0.6-3.9,0.9-5.9,0.8H53.6V154.5z M63.7,176.6
	c2.8,0,4.9-0.7,6.4-2.2c1.5-1.5,2.2-3.5,2.2-6c0-1.2-0.2-2.4-0.5-3.5c-0.3-1-0.9-1.9-1.6-2.7c-0.8-0.8-1.7-1.3-2.7-1.7
	c-1.2-0.4-2.6-0.6-3.9-0.6h-3.8v16.6H63.7z"/>
<path class="st0" d="M81.4,154.5h19v5.5H87.6v5.4h9.9v5.3h-9.9v6h13.6v5.6H81.4V154.5z"/>
<path class="st0" d="M113,154.5h10.4c1.5,0,3,0.2,4.4,0.6c1.1,0.3,2.1,0.9,2.9,1.6c0.7,0.6,1.3,1.4,1.6,2.3c0.3,0.9,0.5,1.8,0.5,2.7
	c0,0.8-0.2,1.6-0.5,2.3c-0.3,0.6-0.7,1.2-1.1,1.7c-0.4,0.5-0.9,0.8-1.4,1.1c-0.4,0.2-0.8,0.4-1.2,0.5c0.6,0.1,1.2,0.3,1.7,0.6
	c0.7,0.3,1.3,0.7,1.9,1.2c0.6,0.6,1.1,1.3,1.5,2c0.4,0.9,0.6,1.9,0.6,2.9c0,1.3-0.2,2.5-0.8,3.7c-0.5,1-1.2,1.8-2.2,2.4
	c-1,0.7-2.2,1.2-3.4,1.4c-1.5,0.3-3,0.5-4.5,0.4H113V154.5z M122.8,165.6c0.5,0,0.9-0.1,1.4-0.2c0.4-0.1,0.8-0.3,1.2-0.5
	c0.4-0.3,0.7-0.6,0.9-1c0.2-0.5,0.3-1,0.3-1.5c0-0.5-0.1-1-0.3-1.5c-0.2-0.4-0.5-0.7-0.9-1c-0.4-0.2-0.8-0.4-1.2-0.5
	c-0.4-0.1-0.9-0.1-1.4-0.1h-3.7v6.2L122.8,165.6z M123.2,177.4c0.5,0,1,0,1.5-0.1c0.5-0.1,1.1-0.2,1.5-0.5c0.5-0.3,0.9-0.6,1.2-1.1
	c0.4-0.6,0.5-1.3,0.5-1.9c0-0.6-0.1-1.3-0.5-1.8c-0.3-0.5-0.7-0.8-1.2-1.1c-0.5-0.3-1-0.4-1.5-0.5c-0.5-0.1-1-0.1-1.5-0.1h-4.1v7.2
	H123.2z"/>
<path class="st0" d="M136.5,154.5h10.3c1.4,0,2.9,0.2,4.2,0.7c1.1,0.4,2.2,1,3.1,1.9c0.8,0.8,1.4,1.7,1.8,2.8
	c0.4,1.1,0.6,2.2,0.6,3.4c0,1.7-0.4,3.3-1.2,4.7c-0.8,1.4-2,2.5-3.4,3.2l6.2,11.1h-6.9l-5.2-10.2h-3.5v10.2h-6.1V154.5z M146.5,167
	c2.1,0,3.8-1.8,3.7-3.9c0-0.9-0.4-1.8-1-2.5c-0.7-0.7-1.7-1-2.7-1h-3.9v7.3L146.5,167z"/>
<path class="st0" d="M167.6,154.5h6.9l10.2,27.8h-6.9l-2.1-6.4H166l-2.1,6.4h-6.6L167.6,154.5z M174.2,171l-3.4-10.5l-3.5,10.5
	H174.2z"/>
<path class="st0" d="M187.8,173.9c0.4,0.4,0.8,0.8,1.3,1.2c0.5,0.4,1,0.8,1.6,1.1c0.6,0.3,1.3,0.6,1.9,0.8c0.7,0.2,1.5,0.3,2.3,0.3
	c0.5,0,1-0.1,1.4-0.2c0.5-0.1,0.9-0.3,1.3-0.6c0.4-0.3,0.7-0.6,0.9-1c0.2-0.4,0.4-0.8,0.4-1.3c0-1-0.6-2-1.5-2.4
	c-1.5-0.8-3.1-1.3-4.7-1.7c-1-0.2-2-0.6-2.9-1.1c-0.9-0.4-1.6-1-2.3-1.7c-0.6-0.7-1.2-1.4-1.5-2.3c-0.4-0.9-0.6-1.9-0.5-2.9
	c0-1.1,0.2-2.2,0.6-3.3c0.4-1,1.1-2,1.9-2.7c0.9-0.8,2-1.5,3.2-1.9c1.4-0.5,3-0.7,4.5-0.7c1.3,0,2.5,0.1,3.7,0.4
	c1,0.2,1.9,0.6,2.8,1c0.7,0.3,1.3,0.8,1.9,1.2c0.5,0.4,0.9,0.8,1.1,1l-3.6,4c-0.3-0.2-0.7-0.5-1.1-0.8c-0.4-0.3-0.9-0.6-1.4-0.8
	c-0.5-0.3-1.1-0.5-1.6-0.6c-0.6-0.2-1.3-0.3-1.9-0.2c-0.4,0-0.9,0.1-1.3,0.2c-0.4,0.1-0.8,0.3-1.2,0.6c-0.3,0.2-0.6,0.5-0.8,0.8
	c-0.2,0.3-0.3,0.7-0.3,1c0,0.9,0.5,1.7,1.5,2.3c1.3,0.7,2.7,1.2,4.1,1.5c1,0.3,2,0.6,3,1c1,0.4,1.9,1,2.6,1.7
	c0.8,0.7,1.4,1.6,1.9,2.6c0.5,1.2,0.7,2.4,0.7,3.7c0,1.2-0.3,2.4-0.8,3.5c-0.6,1.1-1.3,2-2.3,2.7c-1,0.8-2.1,1.4-3.4,1.8
	c-1.3,0.4-2.8,0.7-4.2,0.6c-1.3,0-2.5-0.1-3.8-0.4c-1.1-0.2-2.1-0.6-3.1-1c-0.9-0.4-1.7-0.9-2.5-1.5c-0.7-0.5-1.3-1.1-1.9-1.7
	L187.8,173.9z"/>
<path class="st0" d="M208.2,154.5h6.3v27.8h-6.3V154.5z"/>
<path class="st0" d="M217.8,154.5h6.3v22.2h13.3v5.6h-19.6V154.5z"/>
<path class="st0" d="M248.6,154.5h10.3c1.4,0,2.9,0.2,4.2,0.7c1.1,0.4,2.2,1,3.1,1.9c0.8,0.8,1.4,1.7,1.8,2.8
	c0.4,1.1,0.6,2.2,0.6,3.4c0,1.7-0.4,3.3-1.2,4.7c-0.8,1.4-2,2.5-3.4,3.2l6.2,11.1h-6.9l-5.2-10.2h-3.5v10.2h-6.1V154.5z M258.6,167
	c2.1,0,3.8-1.8,3.7-3.9c0-0.9-0.4-1.8-1-2.5c-0.7-0.7-1.7-1-2.7-1h-3.8v7.3L258.6,167z"/>
<path class="st0" d="M271.8,154.5h10.1c1.5,0,3,0.2,4.4,0.8c1.1,0.4,2.2,1.1,3,2c0.8,0.8,1.4,1.8,1.7,2.8c0.4,1.1,0.6,2.2,0.6,3.4
	c0,1.4-0.2,2.7-0.8,3.9c-0.5,1.1-1.2,2-2.1,2.8c-0.9,0.8-1.9,1.3-3,1.7c-1.2,0.4-2.4,0.6-3.6,0.6h-4.3v9.8h-6.1V154.5z M281.6,167.4
	c1,0.1,2-0.3,2.8-1.1c0.7-0.7,1.1-1.7,1-2.8c0-1.1-0.3-2.1-1-2.9c-0.7-0.7-1.7-1.1-2.8-1.1h-3.6v7.8L281.6,167.4z"/>
<path class="st0" d="M23.3,206.3c-0.2,0.3-0.5,0.7-0.8,0.9c-0.4,0.4-0.8,0.7-1.3,1c-0.5,0.3-1.1,0.6-1.7,0.8
	c-0.7,0.2-1.4,0.3-2.2,0.3c-1.1,0-2.1-0.2-3.1-0.6c-0.9-0.4-1.7-0.9-2.4-1.7c-0.7-0.7-1.2-1.6-1.6-2.5c-0.8-2-0.8-4.3,0-6.3
	c0.4-0.9,0.9-1.8,1.6-2.6c0.7-0.7,1.5-1.3,2.4-1.7c1-0.4,2.1-0.6,3.1-0.6c1.4,0,2.7,0.3,3.9,1c0.5,0.3,0.9,0.6,1.2,1
	c0.3,0.3,0.6,0.6,0.8,1l-1.6,1.3c-0.2-0.3-0.4-0.6-0.7-0.8c-0.3-0.3-0.6-0.6-0.9-0.8c-0.4-0.2-0.8-0.4-1.2-0.5
	c-0.5-0.2-1-0.2-1.6-0.2c-0.8,0-1.6,0.2-2.3,0.5c-0.7,0.3-1.2,0.8-1.7,1.3c-0.5,0.6-0.8,1.2-1.1,1.9c-0.2,0.8-0.4,1.5-0.4,2.3
	c0,0.8,0.1,1.6,0.4,2.3c0.2,0.7,0.6,1.3,1.1,1.9c0.5,0.5,1,1,1.7,1.3c0.7,0.3,1.4,0.5,2.2,0.5c0.6,0,1.2-0.1,1.8-0.3
	c0.4-0.2,0.9-0.4,1.3-0.6c0.3-0.2,0.6-0.5,0.8-0.7c0.2-0.3,0.4-0.5,0.6-0.6L23.3,206.3z"/>
<path class="st0" d="M40.9,207.4c-0.2,0.2-0.4,0.4-0.6,0.5c-0.3,0.2-0.6,0.5-0.9,0.6c-0.4,0.2-0.9,0.4-1.4,0.5
	c-0.6,0.2-1.2,0.2-1.8,0.2c-0.8,0-1.5-0.1-2.3-0.4c-0.7-0.3-1.3-0.7-1.8-1.2c-0.5-0.5-0.9-1.1-1.1-1.8c-0.3-0.7-0.4-1.5-0.4-2.3
	c0-0.7,0.1-1.5,0.4-2.2c0.2-0.7,0.6-1.3,1.1-1.8c0.5-0.5,1.1-0.9,1.7-1.2c0.7-0.3,1.4-0.4,2.1-0.4c0.8,0,1.6,0.2,2.4,0.5
	c0.6,0.3,1.2,0.8,1.6,1.4c0.4,0.6,0.7,1.3,0.9,2c0.2,0.8,0.3,1.5,0.3,2.3h-8.4c0,0.5,0.1,0.9,0.3,1.3c0.2,0.4,0.4,0.7,0.8,1
	c0.3,0.3,0.7,0.5,1.1,0.7c0.4,0.2,0.9,0.3,1.3,0.3c0.8,0,1.5-0.1,2.2-0.5c0.5-0.2,0.9-0.5,1.3-0.9L40.9,207.4z M39.1,202.7
	c0-0.8-0.4-1.5-0.9-2.1c-0.6-0.6-1.4-0.9-2.2-0.8c-0.5,0-0.9,0.1-1.3,0.3c-0.4,0.2-0.7,0.4-1,0.7c-0.3,0.3-0.5,0.6-0.6,0.9
	c-0.2,0.4-0.2,0.7-0.3,1.1L39.1,202.7z"/>
<path class="st0" d="M49.2,200.5v-1.2c0-0.3,0-0.7,0-1h1.9l0.1,1.7c0.1-0.2,0.3-0.4,0.5-0.6c0.2-0.2,0.5-0.4,0.7-0.6
	c0.3-0.2,0.6-0.4,1-0.5c0.4-0.1,0.9-0.2,1.3-0.2c0.2,0,0.4,0,0.6,0c0.2,0,0.4,0.1,0.5,0.1l-0.5,1.9c-1.1-0.4-2.4-0.1-3.2,0.8
	c-0.6,0.6-0.9,1.4-0.9,2.3v5.6h-2.1L49.2,200.5z"/>
<path class="st0" d="M64.2,200h-1.9v-1.7h1.9v-3.5h2.1v3.5h3.1v1.7h-3.1v5.2c-0.1,0.6,0.1,1.3,0.4,1.8c0.3,0.3,0.7,0.5,1.1,0.5
	c0.3,0,0.7-0.1,1-0.2c0.3-0.1,0.5-0.3,0.8-0.6l0.9,1.3c-0.8,0.8-1.9,1.3-3,1.2c-1.1,0-2-0.3-2.5-0.9c-0.5-0.6-0.8-1.6-0.8-2.9
	L64.2,200z"/>
<path class="st0" d="M77.8,194.1h2.3v2.3h-2.3V194.1z M77.9,198.3H80V209h-2.1V198.3z"/>
<path class="st0" d="M89.4,200h-1.9v-1.7h1.9v-0.9c0-0.6,0.1-1.3,0.3-1.9c0.2-0.5,0.5-0.9,0.8-1.3c0.3-0.3,0.7-0.6,1.2-0.7
	c0.4-0.2,0.9-0.2,1.4-0.2c0.6,0,1.1,0.1,1.7,0.3c0.6,0.2,1.1,0.5,1.5,0.9l-1,1.3c-0.5-0.4-1.1-0.7-1.8-0.7c-0.5,0-1.1,0.2-1.4,0.6
	c-0.4,0.4-0.5,1-0.5,1.9v0.7h3v1.7h-3v9h-2.1V200z"/>
<path class="st0" d="M102.6,194.1h2.3v2.3h-2.3V194.1z M102.7,198.3h2.1V209h-2.1V198.3z"/>
<path class="st0" d="M122.7,207.5c-0.5,0.5-1.1,1-1.8,1.3c-0.8,0.3-1.6,0.5-2.4,0.5c-0.8,0-1.6-0.1-2.3-0.4c-1.3-0.5-2.4-1.6-2.9-3
	c-0.3-0.7-0.4-1.5-0.4-2.3c0-0.8,0.1-1.5,0.4-2.2c1.3-2.9,4.6-4.2,7.5-3c0,0,0,0,0,0c0.7,0.3,1.3,0.8,1.8,1.3l-1.4,1.3
	c-0.3-0.4-0.7-0.7-1.2-0.9c-0.5-0.2-1.1-0.4-1.6-0.3c-0.5,0-1,0.1-1.5,0.3c-0.4,0.2-0.8,0.5-1.1,0.8c-0.3,0.4-0.5,0.8-0.7,1.2
	c-0.2,0.5-0.2,1-0.2,1.5c0,0.5,0.1,1,0.2,1.4c0.2,0.5,0.4,0.9,0.7,1.2c0.3,0.4,0.7,0.7,1.1,0.9c0.5,0.2,1,0.3,1.5,0.3
	c0.6,0,1.2-0.1,1.7-0.4c0.5-0.2,0.9-0.6,1.2-1L122.7,207.5z"/>
<path class="st0" d="M137.1,207.7c-0.4,0.5-0.9,0.9-1.6,1.2c-0.6,0.3-1.3,0.4-2,0.4c-0.4,0-0.9-0.1-1.3-0.2
	c-0.4-0.1-0.8-0.3-1.2-0.6c-0.4-0.3-0.7-0.6-0.9-1c-0.2-0.5-0.3-1-0.3-1.5c0-1.1,0.4-2.1,1.2-2.7c0.8-0.7,2-1,3.5-1
	c0.2,0,0.5,0,0.8,0l0.8,0l0.6,0c0.2,0,0.3,0,0.4,0v-0.4c0-0.6-0.2-1.3-0.7-1.7c-0.6-0.4-1.3-0.5-1.9-0.5c-0.7,0-1.3,0.1-1.9,0.3
	c-0.4,0.2-0.8,0.4-1.2,0.7l-1-1.4c0.2-0.2,0.4-0.3,0.7-0.5c0.3-0.2,0.6-0.3,0.9-0.4c0.4-0.1,0.8-0.2,1.2-0.3c0.5-0.1,1-0.1,1.5-0.1
	c1.2-0.1,2.3,0.3,3.2,1c0.8,0.7,1.2,1.8,1.2,2.8v6.2c0,0.4,0,0.7,0,0.9h-1.9L137.1,207.7z M137.1,203.9l-0.4-0.1
	c-0.2,0-0.4,0-0.6-0.1l-0.7,0c-0.3,0-0.5,0-0.8,0c-0.5,0-1,0.1-1.4,0.2c-0.3,0.1-0.6,0.3-0.8,0.5c-0.2,0.2-0.3,0.4-0.4,0.7
	c-0.1,0.2-0.1,0.5-0.1,0.7c0,0.5,0.2,1,0.6,1.3c0.5,0.3,1.1,0.5,1.7,0.4c0.4,0,0.8-0.1,1.1-0.2c0.4-0.1,0.7-0.3,1-0.6
	c0.3-0.2,0.5-0.5,0.6-0.8c0.2-0.3,0.2-0.6,0.3-0.9L137.1,203.9z"/>
<path class="st0" d="M155.3,207.6c-0.1,0.1-0.2,0.2-0.4,0.4c-0.2,0.2-0.4,0.4-0.7,0.6c-0.3,0.2-0.7,0.4-1,0.5
	c-0.4,0.1-0.9,0.2-1.4,0.2c-1.3,0-2.5-0.5-3.4-1.5c-0.4-0.5-0.8-1.1-1-1.7c-0.2-0.7-0.4-1.5-0.4-2.3c0-0.9,0.2-1.8,0.5-2.6
	c0.3-0.7,0.8-1.3,1.3-1.8c0.5-0.4,1.1-0.8,1.8-1c0.6-0.2,1.2-0.3,1.8-0.3c0.6,0,1.2,0.1,1.8,0.3l1,0.4v-5.1h2.1v14.2
	c0,0.3,0,0.7,0,1.1h-2L155.3,207.6z M155.3,200.7c-0.3-0.2-0.6-0.4-0.8-0.5c-0.6-0.2-1.2-0.3-1.8-0.3c-0.5,0-0.9,0.1-1.4,0.3
	c-0.4,0.2-0.8,0.4-1.1,0.8c-0.3,0.4-0.6,0.8-0.7,1.2c-0.2,0.5-0.3,1.1-0.3,1.6c0,0.5,0.1,1,0.2,1.4c0.1,0.4,0.3,0.8,0.6,1.2
	c0.3,0.3,0.6,0.6,1,0.8c0.4,0.2,0.9,0.3,1.4,0.3c0.5,0,0.9-0.1,1.4-0.3c0.4-0.2,0.7-0.4,0.9-0.7c0.2-0.3,0.4-0.6,0.5-1
	c0.1-0.3,0.2-0.7,0.2-1L155.3,200.7z"/>
<path class="st0" d="M171,209.3c-0.8,0-1.5-0.1-2.3-0.4c-0.7-0.3-1.3-0.7-1.8-1.2c-0.5-0.5-0.9-1.1-1.2-1.8c-0.6-1.4-0.6-3,0-4.4
	c0.3-0.7,0.7-1.3,1.2-1.8c0.5-0.5,1.1-0.9,1.8-1.2c1.4-0.6,3.1-0.6,4.5,0c0.7,0.3,1.3,0.7,1.8,1.2c0.5,0.5,0.9,1.1,1.2,1.8
	c0.6,1.4,0.6,3,0,4.4c-0.3,0.7-0.7,1.3-1.2,1.8C174,208.7,172.6,209.3,171,209.3L171,209.3z M171,207.5c0.5,0,1-0.1,1.5-0.3
	c0.4-0.2,0.8-0.5,1.1-0.9c0.3-0.4,0.5-0.8,0.7-1.2c0.3-0.9,0.3-1.9,0-2.8c-0.2-0.5-0.4-0.9-0.7-1.2c-0.3-0.4-0.7-0.7-1.1-0.9
	c-0.5-0.2-1-0.3-1.5-0.3c-0.5,0-1,0.1-1.5,0.3c-0.4,0.2-0.8,0.5-1.1,0.9c-0.3,0.4-0.5,0.8-0.7,1.2c-0.2,0.5-0.2,0.9-0.2,1.4
	c0,0.5,0.1,1,0.2,1.4c0.2,0.5,0.4,0.9,0.7,1.2c0.3,0.4,0.7,0.7,1.1,0.9C170,207.4,170.5,207.5,171,207.5z"/>
<path class="st0" d="M194.9,193.7h5.1c1.1,0,2.2,0.1,3.3,0.4c1,0.3,1.9,0.7,2.6,1.4c0.8,0.7,1.3,1.5,1.7,2.4
	c0.4,1.1,0.6,2.2,0.6,3.4c0,1.1-0.2,2.3-0.6,3.4c-0.4,0.9-1,1.7-1.7,2.4c-0.8,0.7-1.7,1.1-2.6,1.4c-1.1,0.3-2.2,0.5-3.3,0.5h-5.1
	V193.7z M200,207c1.9,0,3.4-0.5,4.5-1.4c1.1-0.9,1.6-2.3,1.6-4.2c0-1.9-0.5-3.3-1.5-4.3c-1-1-2.5-1.5-4.6-1.5h-2.8V207L200,207z"/>
<path class="st0" d="M216.7,194.1h2.3v2.3h-2.3V194.1z M216.8,198.3h2.1V209h-2.1V198.3z"/>
<path class="st0" d="M228.9,211.1c0.4,0.3,0.8,0.5,1.3,0.6c0.6,0.2,1.2,0.3,1.9,0.3c0.9,0.1,1.7-0.2,2.3-0.8
	c0.5-0.6,0.8-1.4,0.8-2.2v-1.3l-0.4,0.4c-0.2,0.2-0.4,0.3-0.7,0.5c-0.3,0.2-0.6,0.3-1,0.4c-0.4,0.1-0.8,0.2-1.3,0.2
	c-0.7,0-1.4-0.1-2.1-0.4c-0.6-0.3-1.1-0.6-1.5-1.1c-0.4-0.5-0.7-1.1-0.9-1.7c-0.2-0.7-0.3-1.4-0.3-2.1c0-0.8,0.1-1.6,0.4-2.3
	c0.3-0.7,0.7-1.3,1.2-1.8c0.5-0.5,1.2-0.9,1.9-1.2c0.8-0.3,1.6-0.4,2.4-0.4c0.8,0,1.6,0.1,2.4,0.2c0.6,0.1,1.2,0.3,1.8,0.5V209
	c0.1,1.3-0.4,2.6-1.3,3.6c-0.9,0.8-2.2,1.3-3.8,1.3c-0.9,0-1.8-0.1-2.6-0.4c-0.6-0.2-1.1-0.5-1.6-0.8L228.9,211.1z M235.2,200.2
	l-0.7-0.2c-0.5-0.1-1-0.1-1.5-0.1c-0.5,0-1.1,0.1-1.6,0.3c-0.5,0.2-0.9,0.5-1.2,0.8c-0.3,0.4-0.6,0.8-0.8,1.2
	c-0.2,0.5-0.3,1-0.3,1.6c0,0.5,0.1,0.9,0.2,1.4c0.1,0.4,0.3,0.8,0.6,1.1c0.3,0.3,0.6,0.6,0.9,0.8c0.4,0.2,0.9,0.3,1.4,0.3
	c0.5,0,0.9-0.1,1.3-0.2c0.4-0.1,0.7-0.3,0.9-0.6c0.2-0.2,0.4-0.5,0.6-0.8c0.1-0.3,0.2-0.6,0.2-1L235.2,200.2z"/>
<path class="st0" d="M245.7,194.1h2.3v2.3h-2.3V194.1z M245.9,198.3h2.1V209h-2.1L245.9,198.3z"/>
<path class="st0" d="M257.5,200h-1.9v-1.7h1.9v-3.5h2.1v3.5h3.1v1.7h-3.1v5.2c-0.1,0.6,0.1,1.2,0.4,1.8c0.3,0.3,0.7,0.5,1.1,0.5
	c0.3,0,0.7-0.1,1-0.2c0.3-0.1,0.6-0.3,0.8-0.6l0.9,1.3c-0.4,0.4-0.9,0.7-1.4,0.9c-0.5,0.2-1.1,0.3-1.7,0.3c-1.1,0-2-0.3-2.5-0.9
	c-0.5-0.6-0.8-1.6-0.8-2.9L257.5,200z"/>
<path class="st0" d="M277.8,207.7c-0.4,0.5-0.9,0.9-1.6,1.2c-0.6,0.3-1.3,0.4-2,0.4c-0.4,0-0.9-0.1-1.3-0.2
	c-0.4-0.1-0.8-0.3-1.2-0.6c-0.4-0.3-0.7-0.6-0.9-1c-0.2-0.5-0.4-1-0.3-1.5c0-1.1,0.4-2.1,1.2-2.7c0.8-0.7,1.9-1,3.5-1
	c0.2,0,0.5,0,0.8,0l0.8,0l0.6,0c0.2,0,0.3,0,0.4,0v-0.4c0.1-0.7-0.2-1.3-0.7-1.7c-0.6-0.4-1.3-0.5-1.9-0.5c-0.7,0-1.3,0.1-1.9,0.3
	c-0.4,0.2-0.8,0.4-1.2,0.7l-1-1.4c0.2-0.2,0.4-0.3,0.7-0.5c0.3-0.2,0.6-0.3,0.9-0.4c0.4-0.1,0.8-0.2,1.2-0.3c0.5-0.1,1-0.1,1.5-0.1
	c1.2-0.1,2.3,0.3,3.2,1c0.8,0.7,1.2,1.8,1.2,2.8v6.3c0,0.4,0,0.7,0,0.9h-1.9L277.8,207.7z M277.8,203.9l-0.4-0.1
	c-0.2,0-0.4,0-0.6-0.1l-0.7,0c-0.3,0-0.5,0-0.8,0c-0.5,0-1,0.1-1.4,0.2c-0.3,0.1-0.6,0.3-0.8,0.5c-0.2,0.2-0.3,0.4-0.4,0.7
	c-0.1,0.2-0.1,0.5-0.1,0.7c0,0.5,0.2,1,0.6,1.3c0.5,0.3,1.1,0.5,1.6,0.4c0.4,0,0.8-0.1,1.1-0.2c0.4-0.1,0.7-0.3,1-0.6
	c0.3-0.2,0.5-0.5,0.7-0.8c0.2-0.3,0.3-0.6,0.3-0.9L277.8,203.9z"/>
<path class="st0" d="M288.2,193.7h2V209h-2.1L288.2,193.7z"/>
</svg>
