<svg id="Camada_1" data-name="Camada 1" xmlns="http://www.w3.org/2000/svg" viewBox="0 0 1200 1200"><defs><style>.cls-1{fill:#fff;}</style></defs><path class="cls-1" d="M314.52,611.06c0,3.07.09,6.14,0,9.21a56.75,56.75,0,0,1-.74,7.24c-.58,3.44-1.26,6.87-2.13,10.25a75.8,75.8,0,0,1-2.7,8,73.4,73.4,0,0,1-3.14,7.15c-1.23,2.4-2.66,4.68-4.06,7-1,1.66-2.08,3.27-3.18,4.87-.66,1-1.41,1.87-2.15,2.77-1.09,1.33-2.2,2.65-3.32,3.94-.82.94-1.63,1.87-2.53,2.73a3,3,0,0,1-1.38.59,5.6,5.6,0,0,1-1.36,0A1.83,1.83,0,0,1,286,673a3.83,3.83,0,0,1,1.41-3.25,51.79,51.79,0,0,0,3.62-4.19c1-1.17,2-2.34,2.9-3.57s1.94-2.66,2.8-4.07c1.27-2.1,2.47-4.25,3.67-6.4a70.33,70.33,0,0,0,6.89-18.2,59.44,59.44,0,0,0,1.85-12.51c.12-5.8.29-11.6.23-17.41a22.12,22.12,0,0,0-3.22-11,23,23,0,0,0-5.07-6,24.17,24.17,0,0,0-6-3.67,20,20,0,0,0-7.91-1.77,27.89,27.89,0,0,0-6.58.43,29,29,0,0,0-6.37,2.55,20.62,20.62,0,0,0-5.55,4.41,23.84,23.84,0,0,0-4.72,7.47c-1.46,3.49-1.65,7.17-1.68,10.89s0,7.45-.27,11.17a25.25,25.25,0,0,1-2.91,10c-.6,1.17-1.23,2.32-1.89,3.46a11,11,0,0,1-1,1.43c-.49.63-1,1.25-1.53,1.87l-3.93,4.55c-.15.17-.33.32-.48.49-.91,1-1.83,2-2.73,3a1.87,1.87,0,0,1-1.66.75,3.14,3.14,0,0,0-.75,0c-1.07.2-1.64-.51-2-1.25a2.26,2.26,0,0,1,.15-2.57c.73-.92,1.55-1.77,2.32-2.66,1.18-1.36,2.33-2.74,3.51-4.1.31-.36.67-.68,1-1a27,27,0,0,0,6.61-13.46,50.54,50.54,0,0,0,.37-5.64c.12-4,.1-8.1.31-12.14a18.78,18.78,0,0,1,1.5-6.32c.6-1.45,1.25-2.88,2-4.26a19.67,19.67,0,0,1,1.82-2.67c.84-1.11,1.7-2.21,2.63-3.24a21.28,21.28,0,0,1,2.19-1.93,28.16,28.16,0,0,1,13.91-6.29,31.63,31.63,0,0,1,8-.12,25.38,25.38,0,0,1,7.17,1.77,22.51,22.51,0,0,1,6.64,3.79c1.67,1.49,3.34,3,4.88,4.61a24.52,24.52,0,0,1,2.44,3.41,26.28,26.28,0,0,1,3.82,10.32,35.93,35.93,0,0,1,.21,5.3C314.54,607,314.52,609,314.52,611.06Z"/><path class="cls-1" d="M304,610.85c0,3.32.21,6.66-.05,10a94.65,94.65,0,0,1-1.53,10.43,58.14,58.14,0,0,1-3.93,12.34c-1.11,2.55-2.32,5.07-3.65,7.52a54,54,0,0,1-3.73,6,56.89,56.89,0,0,1-5.18,6.51c-1.93,2-3.72,4.07-5.57,6.11-.93,1-1.87,2-2.78,3.06-.46.52-.84,1.12-1.35,1.6a2,2,0,0,1-1.08.44,13.75,13.75,0,0,1-1.7,0,1.46,1.46,0,0,1-1.36-.87,3.27,3.27,0,0,1,.42-3.52c1.16-1.32,2.36-2.6,3.57-3.89,1.56-1.67,3.16-3.3,4.7-5,.9-1,1.67-2.13,2.57-3.14a53.12,53.12,0,0,0,5.26-7.29c.81-1.28,1.53-2.61,2.27-3.93a61.74,61.74,0,0,0,4.14-9.29,69.53,69.53,0,0,0,3.34-13.79,82.75,82.75,0,0,0,.38-10.9c0-3.51.06-7,0-10.53a8.79,8.79,0,0,0-1.7-4.94,20.3,20.3,0,0,0-2.23-2.8,12.43,12.43,0,0,0-7-3.4,12.62,12.62,0,0,0-6,.51,12.47,12.47,0,0,0-5.63,3.65,12.9,12.9,0,0,0-3.28,9.07c.07,4-.07,8-.25,12A37,37,0,0,1,270.07,629a55.76,55.76,0,0,1-3.16,6.62,36.91,36.91,0,0,1-3.16,4.47c-1,1.32-2.11,2.58-3.22,3.82-1.38,1.55-2.82,3.05-4.23,4.58-.74.8-1.43,1.65-2.19,2.42s-1.88.6-2.82.35a2.24,2.24,0,0,1-1.41-2,3.1,3.1,0,0,1,1-2.48c1-.92,1.85-2,2.75-3,1.65-1.83,3.31-3.64,4.91-5.51a32.39,32.39,0,0,0,2.2-3c1-1.47,1.93-2.94,2.8-4.46a25.12,25.12,0,0,0,1.25-2.8,29.51,29.51,0,0,0,2.29-8.36c.27-2.53.3-5.08.38-7.63.11-3.29.08-6.59.28-9.87a14.25,14.25,0,0,1,2.56-7.29,20.74,20.74,0,0,1,2.68-3.46,24.31,24.31,0,0,1,4.18-3.07,13.36,13.36,0,0,1,5.75-2c1.45-.12,2.91-.05,4.37-.07a15.76,15.76,0,0,1,8.45,2.65,19.37,19.37,0,0,1,4.43,4,14.77,14.77,0,0,1,3.69,8c.32,2.65.23,5.35.31,8,0,.63,0,1.27,0,1.91Z"/><path class="cls-1" d="M293.48,611.89c0,2.71.07,5.42,0,8.12a31.72,31.72,0,0,1-.57,5.34,95.36,95.36,0,0,1-2.4,9.77,89,89,0,0,1-3.55,8.46,45.55,45.55,0,0,1-5,8.18c-1.13,1.57-2.37,3.07-3.64,4.53-1.84,2.11-3.75,4.16-5.63,6.23l-3.06,3.37c-1,1.08-2,2.15-2.95,3.25a2.38,2.38,0,0,1-2.57.57,2.09,2.09,0,0,1-1.7-1.8,2.85,2.85,0,0,1,.82-2.79c1.38-1.36,2.67-2.82,4-4.24,1-1.1,2-2.2,3-3.32,1.37-1.55,2.74-3.1,4.07-4.69,1-1.24,2-2.52,3-3.82a32.12,32.12,0,0,0,2.14-3c1.09-1.85,2.09-3.75,3.11-5.65a47.19,47.19,0,0,0,3.65-9.36,51.48,51.48,0,0,0,1.73-8.45c.75-6.13.25-12.28.39-18.41A2,2,0,0,0,286.2,602c-.72,0-1.44-.11-2,.51a2.41,2.41,0,0,0-.79,1.8c0,3.75-.11,7.49-.17,11.24a50.21,50.21,0,0,1-3.28,17.1,39,39,0,0,1-2.29,5.15,77.8,77.8,0,0,1-4.29,6.9c-1.2,1.74-2.65,3.31-4,4.93-.83,1-1.73,1.91-2.59,2.87q-2.66,2.94-5.3,5.89c-.8.89-1.59,1.79-2.38,2.68a1.77,1.77,0,0,1-1.55.7c-.39,0-.78,0-1.16,0a1.91,1.91,0,0,1-1.74-1.7,3.4,3.4,0,0,1,1.07-3.1,38.7,38.7,0,0,0,2.94-3.19c1.76-1.94,3.54-3.87,5.27-5.85,1.4-1.61,2.74-3.29,4.11-4.94a43.34,43.34,0,0,0,4-6,47.32,47.32,0,0,0,4.76-12.3c1.05-4.13,1-8.33,1.08-12.53,0-2.5.05-5,.16-7.5a7.47,7.47,0,0,1,.89-3.94c1.54-2.34,3.46-4.11,6.53-4.11a7.53,7.53,0,0,1,4.51,1,17.45,17.45,0,0,1,2.5,2.44c1,1.1,1.07,2.49,1.06,3.89C293.46,606.61,293.48,609.25,293.48,611.89Z"/><path class="cls-1" d="M353.18,600.66c-.78-.76-1.59-1.49-2.34-2.27a4.74,4.74,0,0,1-1.37-2.69,3.5,3.5,0,0,1,1.73-3.38c.8-.59,1.62-1.16,2.39-1.79a2.4,2.4,0,0,0,.29-3.79c-1.13-1.23-2.34-2.38-3.5-3.58a20.09,20.09,0,0,1-5.15-8.9,28.46,28.46,0,0,1-.7-8.77c0-.82.09-1.63.14-2.45a13.59,13.59,0,0,0-1.13-5.76,23.3,23.3,0,0,0-5.05-8.18c-2.15-2.22-4.47-4.3-6.79-6.35a16.88,16.88,0,0,0-2.73-1.64,3.62,3.62,0,0,1-.56-.37,2.23,2.23,0,0,1-.68-2.81,2.58,2.58,0,0,1,3-.65,20.78,20.78,0,0,1,5.42,3.71c1.65,1.49,3.25,3,4.78,4.64,1,1.07,1.92,2.27,2.86,3.42a26.59,26.59,0,0,1,4.73,10.11,15.43,15.43,0,0,1,.28,5.08c-.29,4.4-.27,8.77,2.06,12.75a21.58,21.58,0,0,0,3.63,4.35c1,1,2,2,2.92,3.09a5.23,5.23,0,0,1,1.31,3.62,7.68,7.68,0,0,1-.65,3.56,9.48,9.48,0,0,1-2.92,3.12l-.4.27c-1.07.71-.75.72,0,1.42s1.31,1.26,1.95,1.91a3.52,3.52,0,0,1-.44,5.31c-.67.46-.59.88-.26,1.48,1.12,2,.78,3.55-1,4.93a9.5,9.5,0,0,1-1,.78c-1.35.81-1.63,1.28-1.23,2.79s.93,2.88,1.41,4.32a7.92,7.92,0,0,1,.13,5.71,6.82,6.82,0,0,1-2.71,3c-1.87,1.24-4,1.39-6.14,1.74a56.26,56.26,0,0,0-10.75,2.86,17.48,17.48,0,0,0-6.48,3.87c-1.84,1.9-3.49,4-5.21,6a9.1,9.1,0,0,0-.88,1.34,93.48,93.48,0,0,0-5.44,10.7c-1,2.5-2,5-3,7.51q-2.05,5.4-4,10.82c-.45,1.23-.83,2.49-1.2,3.75a1.76,1.76,0,0,1-2.17,1.27c-1.13-.19-1.93-1-1.74-2a41.36,41.36,0,0,1,1.2-4.53c.88-2.62,1.83-5.21,2.8-7.79s1.87-4.86,2.85-7.27c.8-2,1.55-4,2.5-5.87,1.24-2.48,2.68-4.85,4-7.32a36.79,36.79,0,0,1,4.64-6.64,26.79,26.79,0,0,1,5-4.72,32.34,32.34,0,0,1,8.22-4A68.35,68.35,0,0,1,346.54,624a8.82,8.82,0,0,0,2.68-.84c1.26-.68,1.51-1.48,1.08-3.07s-1-2.9-1.48-4.37a7.9,7.9,0,0,1,.41-6.4,4.77,4.77,0,0,1,2.32-2c.54-.24.58-.49.34-1a4.24,4.24,0,0,1,.05-4.21A12,12,0,0,1,353.18,600.66Z"/><path class="cls-1" d="M225.89,600.58a46.33,46.33,0,0,1,1.94-12.33,48.62,48.62,0,0,1,3.72-9.83c1-1.79,1.81-3.65,2.86-5.38a57.36,57.36,0,0,1,3.6-5.16c1.16-1.51,2.45-2.93,3.71-4.37a34.65,34.65,0,0,1,2.36-2.62c1.31-1.22,2.68-2.36,4.07-3.48,1-.8,2.07-1.51,3.12-2.24,1.24-.86,2.45-1.79,3.76-2.53,2.08-1.17,4.2-2.3,6.38-3.29a46.2,46.2,0,0,1,6.21-2.38c2.76-.8,5.57-1.45,8.39-2a57.51,57.51,0,0,1,13.93-.69c1.56.08,3.12.29,4.67.49a2.4,2.4,0,0,1,2.13,2.07,2.68,2.68,0,0,1-1.42,2.9,2.17,2.17,0,0,1-.92.13c-3.2-.09-6.4-.2-9.6-.31a46.16,46.16,0,0,0-13.06,1.7,50,50,0,0,0-11.68,4.59c-2.33,1.28-4.49,2.87-6.71,4.33a52.15,52.15,0,0,0-8.78,7.94,33.43,33.43,0,0,0-2.78,3.57c-1.14,1.6-2.23,3.24-3.32,4.88a9.75,9.75,0,0,0-.63,1.2,54.09,54.09,0,0,0-2.63,5.35c-1.07,2.86-2,5.79-2.81,8.72a51,51,0,0,0-1.41,9.28,3.31,3.31,0,0,1-1,2.62,2.6,2.6,0,0,1-3.33,0,2,2,0,0,1-.75-1.9A10.1,10.1,0,0,0,225.89,600.58Z"/><path class="cls-1" d="M335.51,607.81c0,2.6,0,5.19,0,7.79a2.28,2.28,0,0,1-2.11,2.08,2.74,2.74,0,0,1-2.31-.7,2.68,2.68,0,0,1-.66-1.94c-.06-2.34-.07-4.68-.13-7-.07-3,0-5.92-.28-8.86A36.5,36.5,0,0,0,327.19,588c-.75-1.74-1.53-3.48-2.43-5.16-.72-1.35-1.61-2.61-2.45-3.89a43.41,43.41,0,0,0-6.95-7.87,31.88,31.88,0,0,0-4-3.09,49.75,49.75,0,0,0-5.26-3.23,43,43,0,0,0-9.87-3.63,48.17,48.17,0,0,0-9.1-1.19c-1.62-.07-3.23-.16-4.84-.26a1.92,1.92,0,0,1-1.55-1.75,2.5,2.5,0,0,1,.89-2.57,2.42,2.42,0,0,1,1.21-.47c2.58,0,5.18-.19,7.74,0a66.45,66.45,0,0,1,7.51,1.25,45.64,45.64,0,0,1,12.76,5.15c1.83,1,3.45,2.38,5.19,3.54,3,2,5.22,4.75,7.74,7.22A60.18,60.18,0,0,1,330,581.4a47.76,47.76,0,0,1,5.5,24.6C335.5,606.6,335.51,607.21,335.51,607.81Z"/><path class="cls-1" d="M286.44,533.75c2.31.12,5.27.18,8.21.46a61.87,61.87,0,0,1,11.65,2.43,52.69,52.69,0,0,1,9.06,3.5c2,1,4.07,2,6.07,3.05a41.34,41.34,0,0,1,3.6,2.3c1.76,1.22,3.55,2.41,5.21,3.75s3,2.7,4.43,4.08c.79.75,1.5,1.58,2.3,2.31a2.44,2.44,0,0,1,0,3.21,3,3,0,0,1-4.23,0c-1.14-1.17-2.26-2.37-3.48-3.44s-2.6-2.1-3.93-3.12-2.36-1.8-3.58-2.65a27.78,27.78,0,0,0-2.65-1.64c-2-1.09-4.08-2.17-6.15-3.21-1-.5-2.08-.89-3.13-1.31a58,58,0,0,0-9.88-3,65.34,65.34,0,0,0-6.51-1c-2.6-.27-5.22-.47-7.82-.48a62,62,0,0,0-7.21.47c-2.52.29-5,.8-7.53,1.2a2.82,2.82,0,0,1-2.59-.61,2.72,2.72,0,0,1-.56-2.8,2.29,2.29,0,0,1,1.82-1.67A53.14,53.14,0,0,1,279,534C281.29,533.91,283.54,533.86,286.44,533.75Z"/><path class="cls-1" d="M233.56,625.1a2,2,0,0,1-2.21-1.18,3.54,3.54,0,0,1,.48-3.12c1-1.09,2-2.18,3-3.32a5,5,0,0,0,1.18-3.19c.06-4.64.08-9.27.29-13.9a45,45,0,0,1,2-10.82,50.73,50.73,0,0,1,4.38-10,30,30,0,0,1,4.41-6.32c1-1,1.89-2.12,2.87-3.13a2.37,2.37,0,0,1,1-.42,2.15,2.15,0,0,1,.62,0c.66,0,1.39-.19,1.88.48A3.29,3.29,0,0,1,254,573a3.08,3.08,0,0,1-.68,1.15c-1.11,1.33-2.37,2.56-3.37,4a50.14,50.14,0,0,0-4.22,7.19A39,39,0,0,0,242,597.27c-.41,3.14-.37,6.34-.49,9.52-.08,2.42-.05,4.84-.16,7.26a10.86,10.86,0,0,1-1.35,5.23,14.28,14.28,0,0,1-1.38,1.82q-1.38,1.59-2.82,3.12C235,625.12,235,625.1,233.56,625.1Z"/><path class="cls-1" d="M325.27,610.06c-.12,4-.19,8-.38,12-.1,2-.42,4.06-.64,6.09A2.88,2.88,0,0,1,323,630a1,1,0,0,1-.58.14c-.38,0-.77,0-1.16,0a2,2,0,0,1-2.11-2.12c0-1.14.12-2.29.25-3.43a84.63,84.63,0,0,0,.39-9.94c0-4,0-8,0-12a26.28,26.28,0,0,0-1.71-9.11,49.23,49.23,0,0,0-2.71-6.07,30,30,0,0,0-3.17-4.47c-1.16-1.43-2.5-2.72-3.76-4.07-1.05-1.14-.71-3.64.67-4.09a2.83,2.83,0,0,1,3.15.48c1.26,1.3,2.64,2.49,3.83,3.85a29.34,29.34,0,0,1,2.71,3.73,48.59,48.59,0,0,1,2.63,4.67,36.43,36.43,0,0,1,3.25,10.54A88.2,88.2,0,0,1,325.27,610.06Z"/><path class="cls-1" d="M285.84,523.49c2.12,0,4.24-.15,6.35,0,3,.25,6,.71,9,1.14,1.21.17,2.4.48,3.6.73a2.35,2.35,0,0,1,1.92,1.62c.43,1.31-.13,3.16-1.35,3.33a8.49,8.49,0,0,1-2.71-.06,77.15,77.15,0,0,0-12.27-1.66c-3.29-.09-6.6-.13-9.88,0a72.08,72.08,0,0,0-15.14,2.62,62.14,62.14,0,0,0-9.52,3.43,12.59,12.59,0,0,1-2.54,1.1,6.45,6.45,0,0,1-2.8,0c-1-.22-1.51-2.17-1.08-3.18A2.84,2.84,0,0,1,251,531c2.28-.9,4.53-1.84,6.79-2.78a67.73,67.73,0,0,1,12-3.46,60,60,0,0,1,14.76-1.28C285,523.5,285.41,523.49,285.84,523.49Z"/><path class="cls-1" d="M246.65,603.37a35.78,35.78,0,0,1,2.67-13.4,43.38,43.38,0,0,1,2.45-5.15,49.2,49.2,0,0,1,3.36-4.76,28.18,28.18,0,0,1,3.11-3.67,55.12,55.12,0,0,1,5.27-4.23,35.68,35.68,0,0,1,4.89-3,35.25,35.25,0,0,1,5.43-2.15,61.07,61.07,0,0,1,6-1.43,2.91,2.91,0,0,1,2.6.63c1.15,1,.94,3.94-1.1,4.41-1.55.35-3.12.64-4.64,1.08s-3,1-4.46,1.62a22.53,22.53,0,0,0-2.78,1.39,38.69,38.69,0,0,0-4,2.5,32,32,0,0,0-3.65,3.33,37.76,37.76,0,0,0-3.7,4.31,36.16,36.16,0,0,0-2.68,4.63,32.91,32.91,0,0,0-3.5,13.4,18.25,18.25,0,0,1-.3,2.56,1.62,1.62,0,0,1-1.7,1.28,8.66,8.66,0,0,0-1,0c-1.52.2-2.18-.88-2.23-2.26C246.63,604.1,246.65,603.74,246.65,603.37Z"/><path class="cls-1" d="M232.16,565a2,2,0,0,1-2.21-1.39,2.54,2.54,0,0,1,.34-2.84c1.22-1.36,2.37-2.77,3.57-4.14a37.93,37.93,0,0,1,2.55-2.82c1.26-1.19,2.61-2.29,3.93-3.42,1.11-.93,2.19-1.9,3.37-2.74,1.87-1.33,3.77-2.64,5.73-3.83s4-2.25,6-3.3a28.06,28.06,0,0,1,3.42-1.49,2.77,2.77,0,0,1,2.79.5,2.74,2.74,0,0,1-.75,4.38c-2,.87-3.91,1.8-5.82,2.78-1.17.59-2.27,1.3-3.39,2s-2,1.27-3,1.94-2.06,1.46-3.07,2.22a74.91,74.91,0,0,0-8.48,7.94c-1,1-1.83,2.24-2.78,3.33C233.55,565,233.46,565,232.16,565Z"/><path class="cls-1" d="M343,586.05a2.37,2.37,0,0,1-2.17,2.58,2.59,2.59,0,0,1-2.84-1.74,63.32,63.32,0,0,0-4.55-10,40,40,0,0,0-3.14-4.73c-1.29-1.72-2.72-3.32-4.06-5a2.72,2.72,0,0,1-.28-2.89,2.24,2.24,0,0,1,2-1.38,2.45,2.45,0,0,1,2.32.85c1.06,1.26,2.16,2.49,3.15,3.79,1.33,1.74,2.66,3.49,3.83,5.34A47.18,47.18,0,0,1,340,578c1,2,1.81,4.15,2.65,6.26A9.34,9.34,0,0,1,343,586.05Z"/><path class="cls-1" d="M251.76,614.92a18.43,18.43,0,0,1-2.53,9.28,33.92,33.92,0,0,1-2.88,4c-1,1.32-2.17,2.6-3.29,3.86-.65.73-1.36,1.4-2,2.11a9.77,9.77,0,0,1-.86,1,3.08,3.08,0,0,1-3.56,0,1.75,1.75,0,0,1-.51-.63,4.16,4.16,0,0,1,.72-3.71c1.23-1.27,2.44-2.55,3.59-3.89a33.42,33.42,0,0,0,4-5.07,15.91,15.91,0,0,0,2.08-7.4,2.6,2.6,0,0,1,1.28-2.6,3.35,3.35,0,0,1,2.87,0,2.12,2.12,0,0,1,1.08,2.05C251.77,614.28,251.76,614.6,251.76,614.92Z"/><path class="cls-1" d="M304.75,547.44c1.17-.24,2.25.52,3.4.95a43.91,43.91,0,0,1,4.91,2.18c1.91,1,3.75,2.19,5.6,3.33,1,.58,1.84,1.3,2.82,1.84a2.32,2.32,0,0,1,1.14,1.37,3,3,0,0,1-.21,2.62,2.32,2.32,0,0,1-1.33.77,6,6,0,0,1-1.8,0,1.6,1.6,0,0,1-.75-.28c-1.45-1-2.86-2-4.34-2.87s-2.87-1.73-4.37-2.46-3.08-1.32-4.63-2c-.73-.3-1.48-.57-2.19-.91a1.61,1.61,0,0,1-1-1.64c0-.32,0-.64,0-1a1.82,1.82,0,0,1,2-2Z"/><path class="cls-1" d="M273,556.58a2.42,2.42,0,0,1,2.5,3.52,4.07,4.07,0,0,1-1.61,1.36c-1.4.62-2.92,1-4.33,1.61q-2.7,1.18-5.3,2.57c-1.33.7-2.59,1.55-3.89,2.31a2.84,2.84,0,0,1-3.08-.3,2.77,2.77,0,0,1-.64-2.8,2.71,2.71,0,0,1,1.26-1.61c1.52-.86,3-1.75,4.49-2.67a42.68,42.68,0,0,1,9.25-3.89A5.44,5.44,0,0,1,273,556.58Z"/><path class="cls-1" d="M304.14,571.12a2.48,2.48,0,0,1-3.32,2.61,19.49,19.49,0,0,1-2.4-.93,36.18,36.18,0,0,0-7.59-2.09,2.47,2.47,0,0,1-1.92-1.22,2.94,2.94,0,0,1,0-2.6,2.08,2.08,0,0,1,2.07-1.36,27.43,27.43,0,0,1,3.49.51,33.4,33.4,0,0,1,7.65,2.55,7.4,7.4,0,0,1,1.3.84A1.71,1.71,0,0,1,304.14,571.12Z"/><path class="cls-1" d="M312.37,531.31c-.23-2,1.83-3.09,3.77-2.27,2.45,1,4.85,2.21,7.29,3.3a2.6,2.6,0,0,1,1.68,2.12,2.44,2.44,0,0,1-1.8,2.94,3.38,3.38,0,0,1-2.12-.2c-2.39-1.13-4.82-2.19-7.21-3.32A2.42,2.42,0,0,1,312.37,531.31Z"/><path class="cls-1" d="M392.69,543.56h21.18a24.76,24.76,0,0,1,8.72,1.41,18.18,18.18,0,0,1,6.28,3.84,15.56,15.56,0,0,1,3.75,5.69,19.12,19.12,0,0,1,1.24,6.91,18.8,18.8,0,0,1-2.43,9.7,18,18,0,0,1-6.88,6.62l12.64,22.81H423l-10.59-20.93h-7.17v20.93H392.69Zm20.5,25.71a7.8,7.8,0,0,0,5.64-13.07,7.66,7.66,0,0,0-5.64-2.05h-7.94v15.12Z"/><path class="cls-1" d="M440.27,543.56h39v11.28H453.17v11.1h20.24v10.94H453.17v12.3H481.1v11.36H440.27Z"/><path class="cls-1" d="M485.54,543.56h21.53a41.48,41.48,0,0,1,12.17,1.71,26.45,26.45,0,0,1,9.65,5.21,23.62,23.62,0,0,1,6.32,9,33.58,33.58,0,0,1,2.26,12.9,30.43,30.43,0,0,1-2.3,12.34,24.73,24.73,0,0,1-6.36,8.8,26.66,26.66,0,0,1-9.66,5.3A40.81,40.81,0,0,1,507,600.54H485.54Zm20.76,45.53q8.54,0,13.15-4.48t4.61-12.35a22.57,22.57,0,0,0-1.06-7.13,14.39,14.39,0,0,0-3.25-5.47,14.68,14.68,0,0,0-5.51-3.5,23,23,0,0,0-7.94-1.24h-7.86v34.17Z"/><path class="cls-1" d="M542.51,543.56h39v11.28H555.41v11.1h20.25v10.94H555.41v12.3h27.93v11.36H542.51Z"/><path class="cls-1" d="M607.52,543.56h21.35a28.47,28.47,0,0,1,9,1.24,17.14,17.14,0,0,1,6,3.29,12,12,0,0,1,3.33,4.74,15.44,15.44,0,0,1,1,5.6,11.27,11.27,0,0,1-1,4.82,15.19,15.19,0,0,1-2.31,3.59,11.09,11.09,0,0,1-2.82,2.35,10.54,10.54,0,0,1-2.52,1.11,19,19,0,0,1,3.55,1.24,13.93,13.93,0,0,1,6.83,6.75,13.36,13.36,0,0,1,1.24,5.93,16.36,16.36,0,0,1-1.58,7.52,13.64,13.64,0,0,1-4.44,5,19.66,19.66,0,0,1-7,2.86,43.77,43.77,0,0,1-9.27.9H607.52Zm20.16,22.81a12,12,0,0,0,2.86-.34A7.73,7.73,0,0,0,633,565a5.59,5.59,0,0,0,1.75-2,6.23,6.23,0,0,0,.68-3,6.42,6.42,0,0,0-.68-3.11,5.44,5.44,0,0,0-1.8-2,7.42,7.42,0,0,0-2.52-1,13.26,13.26,0,0,0-2.77-.3h-7.6v12.81Zm.77,24.26a25.4,25.4,0,0,0,3.07-.21,9.34,9.34,0,0,0,3.16-1,6.71,6.71,0,0,0,2.44-2.22,7.12,7.12,0,0,0,1-4,6.78,6.78,0,0,0-.94-3.76,6.71,6.71,0,0,0-2.39-2.26,9.84,9.84,0,0,0-3.16-1.12,19.42,19.42,0,0,0-3.16-.29h-8.37v14.86Z"/><path class="cls-1" d="M655.7,543.56h21.18a24.71,24.71,0,0,1,8.71,1.41,18,18,0,0,1,6.28,3.84,15.59,15.59,0,0,1,3.76,5.69,19.34,19.34,0,0,1,1.24,6.91,18.71,18.71,0,0,1-2.44,9.7,17.87,17.87,0,0,1-6.87,6.62l12.64,22.81H686l-10.59-20.93h-7.18v20.93H655.7Zm20.5,25.71a7.8,7.8,0,0,0,5.63-13.07,7.62,7.62,0,0,0-5.63-2.05h-8v15.12Z"/><path class="cls-1" d="M719.59,543.56h14.26l20.85,57H740.6l-4.35-13.07H716.17l-4.35,13.07h-13.5Zm13.58,33.91L726.25,556l-7.09,21.52Z"/><path class="cls-1" d="M760.93,583.54a26.06,26.06,0,0,0,2.61,2.43,21.62,21.62,0,0,0,3.33,2.27,19.18,19.18,0,0,0,4,1.66,16.35,16.35,0,0,0,4.66.64,10.38,10.38,0,0,0,2.9-.42,9.61,9.61,0,0,0,2.65-1.24,6.54,6.54,0,0,0,1.92-2,4.72,4.72,0,0,0,.73-2.6,5.41,5.41,0,0,0-3.08-4.91,41.91,41.91,0,0,0-9.73-3.46,26.38,26.38,0,0,1-6-2.22,18.89,18.89,0,0,1-4.78-3.51,14.8,14.8,0,0,1-3.12-4.69,15.13,15.13,0,0,1-1.11-5.9,17.9,17.9,0,0,1,1.28-6.75,15.7,15.7,0,0,1,3.89-5.59,18.65,18.65,0,0,1,6.49-3.85,26.92,26.92,0,0,1,9.18-1.41,29.58,29.58,0,0,1,7.69.9,27.38,27.38,0,0,1,5.68,2.14,19.46,19.46,0,0,1,3.85,2.56c1,.88,1.75,1.58,2.26,2.09l-7.43,8.2c-.63-.51-1.35-1.06-2.18-1.66a19.48,19.48,0,0,0-2.78-1.67,18.87,18.87,0,0,0-3.37-1.28,14.5,14.5,0,0,0-3.89-.51,8.84,8.84,0,0,0-2.69.42,9.3,9.3,0,0,0-2.39,1.16,6.05,6.05,0,0,0-1.71,1.71,3.8,3.8,0,0,0-.64,2.09c0,1.94,1,3.5,3.08,4.7a30.3,30.3,0,0,0,8.45,3,38,38,0,0,1,6.2,2.09,20.2,20.2,0,0,1,5.42,3.46,15.87,15.87,0,0,1,3.84,5.25,17.79,17.79,0,0,1,1.46,7.56,15,15,0,0,1-1.71,7.09,17.87,17.87,0,0,1-4.66,5.64,22,22,0,0,1-6.92,3.72,27,27,0,0,1-8.58,1.32,34.46,34.46,0,0,1-7.77-.81,30.82,30.82,0,0,1-6.32-2.14,28.4,28.4,0,0,1-5.09-3,28,28,0,0,1-3.88-3.5Z"/><path class="cls-1" d="M802.87,543.56h12.9v57h-12.9Z"/><path class="cls-1" d="M822.6,543.56h12.9v45.53h27.25v11.45H822.6Z"/><path class="cls-1" d="M885.81,543.56H907a24.75,24.75,0,0,1,8.71,1.41,18,18,0,0,1,6.28,3.84,15.59,15.59,0,0,1,3.76,5.69,19.34,19.34,0,0,1,1.24,6.91,18.81,18.81,0,0,1-2.44,9.7,17.87,17.87,0,0,1-6.87,6.62l12.64,22.81H916.14l-10.59-20.93h-7.18v20.93H885.81Zm20.5,25.71A7.8,7.8,0,0,0,912,556.2a7.63,7.63,0,0,0-5.64-2.05h-7.94v15.12Z"/><path class="cls-1" d="M933.39,543.56h20.76a23.75,23.75,0,0,1,9.05,1.54,17.87,17.87,0,0,1,6.2,4.06A15.63,15.63,0,0,1,973,555a21,21,0,0,1,1.16,6.92,19.33,19.33,0,0,1-1.58,8.07,16.63,16.63,0,0,1-4.27,5.77,18.92,18.92,0,0,1-6.2,3.5,22.45,22.45,0,0,1-7.34,1.19H946v20.08H933.39ZM953.47,570a7.49,7.49,0,0,0,5.68-2.18,7.86,7.86,0,0,0,2.09-5.68,8.16,8.16,0,0,0-2.14-5.85,7.48,7.48,0,0,0-5.72-2.26H946v16Z"/><path class="cls-1" d="M419.47,650a11.35,11.35,0,0,1-1.6,1.92,14.19,14.19,0,0,1-2.63,2.05,16.77,16.77,0,0,1-3.57,1.62,14.36,14.36,0,0,1-4.47.66,16.12,16.12,0,0,1-6.35-1.22,14.62,14.62,0,0,1-4.93-3.41,15.48,15.48,0,0,1-3.22-5.17,18.65,18.65,0,0,1,0-12.95,16.14,16.14,0,0,1,3.22-5.27,14.91,14.91,0,0,1,5-3.55,15.52,15.52,0,0,1,6.41-1.29,14.82,14.82,0,0,1,7.93,2.14,13,13,0,0,1,2.53,2,14.75,14.75,0,0,1,1.72,2.06l-3.2,2.73a17.81,17.81,0,0,0-1.34-1.67,9,9,0,0,0-1.85-1.57,10.52,10.52,0,0,0-2.5-1.18,10.33,10.33,0,0,0-3.24-.47,10.33,10.33,0,0,0-8.11,3.67,11.85,11.85,0,0,0-2.18,3.95,14.79,14.79,0,0,0-.76,4.79,14.33,14.33,0,0,0,.78,4.77,11.84,11.84,0,0,0,2.18,3.88,10.15,10.15,0,0,0,3.44,2.59,10.49,10.49,0,0,0,4.51.94,11,11,0,0,0,3.64-.54,10.27,10.27,0,0,0,2.59-1.3,10.75,10.75,0,0,0,1.74-1.52c.45-.52.84-.95,1.15-1.3Z"/><path class="cls-1" d="M455.72,652.28c-.26.28-.63.64-1.13,1.08a9.54,9.54,0,0,1-1.95,1.27,15,15,0,0,1-2.82,1.06,13.92,13.92,0,0,1-3.69.45,12.51,12.51,0,0,1-4.66-.85,10.15,10.15,0,0,1-3.62-2.4,10.79,10.79,0,0,1-2.33-3.71,13.58,13.58,0,0,1-.82-4.8,12.55,12.55,0,0,1,.8-4.49A10.64,10.64,0,0,1,445.61,633a10.14,10.14,0,0,1,4.84,1.08,9.71,9.71,0,0,1,3.32,2.87,12.3,12.3,0,0,1,1.9,4.09,18.44,18.44,0,0,1,.61,4.79H439a6.6,6.6,0,0,0,.63,2.68,6.76,6.76,0,0,0,1.58,2.12,7.78,7.78,0,0,0,2.25,1.41,7.14,7.14,0,0,0,2.68.52,9.7,9.7,0,0,0,4.56-.95,9.11,9.11,0,0,0,2.59-1.83Zm-3.81-9.64a7.07,7.07,0,0,0-1.79-4.32,5.74,5.74,0,0,0-4.51-1.79,6.6,6.6,0,0,0-2.7.52,6.21,6.21,0,0,0-3.37,3.31,6.51,6.51,0,0,0-.51,2.28Z"/><path class="cls-1" d="M472.73,638.08v-2.37c0-.68,0-1.37,0-2.09h4l.14,3.52a11.12,11.12,0,0,1,1-1.24,7.35,7.35,0,0,1,1.48-1.25,8.8,8.8,0,0,1,2-1,8,8,0,0,1,2.66-.4,8.52,8.52,0,0,1,1.29.09,6.1,6.1,0,0,1,1.1.28l-.94,4a6,6,0,0,0-2.16-.33,6.07,6.07,0,0,0-4.51,2,7,7,0,0,0-1.34,2.14A6.86,6.86,0,0,0,477,644v11.52h-4.24Z"/><path class="cls-1" d="M503.48,637.14h-4v-3.52h4v-7.15h4.23v7.15h6.39v3.52h-6.39v10.77a5.85,5.85,0,0,0,.82,3.62,2.87,2.87,0,0,0,2.33,1,4.73,4.73,0,0,0,2-.38,6.28,6.28,0,0,0,1.6-1.13l1.93,2.59a8.12,8.12,0,0,1-6.21,2.49q-3.48,0-5.1-1.88c-1.08-1.26-1.62-3.21-1.62-5.88Z"/><path class="cls-1" d="M531.31,625h4.75v4.74h-4.75Zm.28,8.65h4.23v21.86h-4.23Z"/><path class="cls-1" d="M555.24,637.14h-4v-3.52h4v-1.79a10.56,10.56,0,0,1,.63-3.83,7.52,7.52,0,0,1,1.7-2.66,6.64,6.64,0,0,1,2.42-1.53,8.51,8.51,0,0,1,2.86-.49,11,11,0,0,1,3.41.54,8.19,8.19,0,0,1,3.08,1.86l-2.11,2.72a5.7,5.7,0,0,0-3.72-1.45,3.86,3.86,0,0,0-2.94,1.17c-.73.79-1.1,2.13-1.1,4.05v1.41h6.25v3.52h-6.25v18.34h-4.23Z"/><path class="cls-1" d="M582.22,625H587v4.74h-4.75Zm.28,8.65h4.24v21.86H582.5Z"/><path class="cls-1" d="M623.5,652.47a10.87,10.87,0,0,1-3.6,2.65,11.38,11.38,0,0,1-5,1,12.58,12.58,0,0,1-4.77-.87,10.17,10.17,0,0,1-5.9-6.07,13.33,13.33,0,0,1-.8-4.68,11.94,11.94,0,0,1,.85-4.51,11.13,11.13,0,0,1,2.37-3.69,12,12,0,0,1,13.14-2.42,11,11,0,0,1,3.62,2.68l-2.77,2.68a7.14,7.14,0,0,0-2.4-1.93,7.38,7.38,0,0,0-3.34-.7,7,7,0,0,0-3,.63,6.47,6.47,0,0,0-2.26,1.74,8.07,8.07,0,0,0-1.41,2.54,9,9,0,0,0-.49,3,8.89,8.89,0,0,0,.49,2.94,8.07,8.07,0,0,0,1.41,2.54,6.73,6.73,0,0,0,5.29,2.42,7.88,7.88,0,0,0,3.46-.73,7,7,0,0,0,2.51-2Z"/><path class="cls-1" d="M653.12,652.84a7.3,7.3,0,0,1-3.22,2.45,11.1,11.1,0,0,1-4.12.8,10.76,10.76,0,0,1-2.7-.35,7.22,7.22,0,0,1-2.45-1.18,6.16,6.16,0,0,1-1.78-2.12,6.66,6.66,0,0,1-.68-3.17,7.06,7.06,0,0,1,2.46-5.64c1.65-1.41,4-2.12,7.13-2.12.5,0,1,0,1.59,0l1.6.1,1.32.09c.38,0,.64.06.8.09V641a4,4,0,0,0-1.48-3.5,6.84,6.84,0,0,0-4-1.06,9.36,9.36,0,0,0-4,.69,15.5,15.5,0,0,0-2.45,1.38l-2-2.86a10.66,10.66,0,0,1,1.36-1,11.83,11.83,0,0,1,1.88-.86,14.7,14.7,0,0,1,2.45-.66A17.27,17.27,0,0,1,648,633a10,10,0,0,1,6.65,2,7.21,7.21,0,0,1,2.42,5.81v12.72c0,.76,0,1.41,0,2h-3.95Zm0-7.71a7.05,7.05,0,0,0-.73-.11c-.36,0-.78-.09-1.25-.12l-1.5-.09c-.53,0-1.05,0-1.55,0a8.25,8.25,0,0,0-2.89.42,4.87,4.87,0,0,0-1.74,1.06,3.2,3.2,0,0,0-.87,1.41,5,5,0,0,0-.24,1.48,3.15,3.15,0,0,0,1.23,2.7,5.52,5.52,0,0,0,3.38.92,6.54,6.54,0,0,0,2.33-.42,7,7,0,0,0,2-1.13,5.66,5.66,0,0,0,1.36-1.65,3.88,3.88,0,0,0,.52-1.92Z"/><path class="cls-1" d="M690.4,652.7q-.24.28-.78.87a7,7,0,0,1-1.43,1.16,10.78,10.78,0,0,1-2.1,1,8.43,8.43,0,0,1-2.79.43,9.21,9.21,0,0,1-7-3.06,10.23,10.23,0,0,1-2.05-3.55,14.27,14.27,0,0,1-.73-4.68,12,12,0,0,1,1.09-5.33,11.1,11.1,0,0,1,2.75-3.67,10.78,10.78,0,0,1,3.62-2.09,11.52,11.52,0,0,1,3.69-.66,9.66,9.66,0,0,1,3.66.56c.88.38,1.55.66,2,.85V624.12h4.23v29.12c0,.71,0,1.45,0,2.24h-4.13Zm0-14.24a11.39,11.39,0,0,0-1.74-1,8.21,8.21,0,0,0-3.62-.64,7,7,0,0,0-2.85.57,6.75,6.75,0,0,0-2.26,1.6,7.3,7.3,0,0,0-1.5,2.53,10,10,0,0,0-.54,3.39,10.87,10.87,0,0,0,.38,2.94,7,7,0,0,0,1.15,2.42,5.29,5.29,0,0,0,2,1.62,6.44,6.44,0,0,0,2.85.59,6,6,0,0,0,2.82-.61,5.93,5.93,0,0,0,1.9-1.53,6.17,6.17,0,0,0,1.08-2,6.67,6.67,0,0,0,.36-2Z"/><path class="cls-1" d="M722.79,656.14a11.6,11.6,0,0,1-4.66-.92,11,11,0,0,1-3.64-2.52,11.76,11.76,0,0,1-2.4-3.69,12,12,0,0,1,0-9,12,12,0,0,1,2.4-3.69,11.12,11.12,0,0,1,3.64-2.51,11.6,11.6,0,0,1,4.66-.92,11.43,11.43,0,0,1,8.27,3.43,11.87,11.87,0,0,1,2.42,3.69,11.76,11.76,0,0,1-2.42,12.67,11.23,11.23,0,0,1-3.67,2.52A11.45,11.45,0,0,1,722.79,656.14Zm0-3.67a6.8,6.8,0,0,0,3.05-.68,7.32,7.32,0,0,0,2.31-1.79,7.92,7.92,0,0,0,1.43-2.54,8.92,8.92,0,0,0,0-5.83,7.93,7.93,0,0,0-1.46-2.56,7.39,7.39,0,0,0-2.3-1.81,6.68,6.68,0,0,0-3-.68,6.81,6.81,0,0,0-3.06.68,7,7,0,0,0-2.3,1.79,7.66,7.66,0,0,0-1.44,2.54,8.88,8.88,0,0,0-.49,2.93,8.73,8.73,0,0,0,.49,2.92,8,8,0,0,0,1.46,2.54,7.54,7.54,0,0,0,2.3,1.81A6.7,6.7,0,0,0,722.79,652.47Z"/><path class="cls-1" d="M771.82,624.12H782.3a24.23,24.23,0,0,1,6.84.92,14.24,14.24,0,0,1,5.39,2.86,13.45,13.45,0,0,1,3.52,4.92,17.73,17.73,0,0,1,1.27,7,17.22,17.22,0,0,1-1.27,6.89,13.42,13.42,0,0,1-3.52,4.89,14.59,14.59,0,0,1-5.41,2.89,24.15,24.15,0,0,1-6.86.94H771.82Zm10.34,27.31q5.88,0,9.15-2.89t3.26-8.58q0-5.73-3.15-8.76t-9.4-3h-5.69v23.27Z"/><path class="cls-1" d="M816.43,625h4.75v4.74h-4.75Zm.28,8.65H821v21.86h-4.24Z"/><path class="cls-1" d="M841.63,659.94a10.81,10.81,0,0,0,2.66,1.3,11.86,11.86,0,0,0,3.83.54,6,6,0,0,0,4.7-1.74,6.61,6.61,0,0,0,1.55-4.56V652.8c-.22.19-.51.44-.87.77a6.47,6.47,0,0,1-1.36.94,10.52,10.52,0,0,1-1.95.8,8.53,8.53,0,0,1-2.59.36,10.33,10.33,0,0,1-4.25-.83,9.07,9.07,0,0,1-3.13-2.25,9.64,9.64,0,0,1-1.93-3.44,13.76,13.76,0,0,1-.66-4.34,11.9,11.9,0,0,1,.9-4.68,11,11,0,0,1,2.51-3.72,11.38,11.38,0,0,1,3.88-2.44,13.9,13.9,0,0,1,5-.87,25.25,25.25,0,0,1,5,.47,22.69,22.69,0,0,1,3.71,1v20.88a9.65,9.65,0,0,1-2.75,7.35q-2.74,2.61-7.73,2.61a16,16,0,0,1-5.32-.72,12.44,12.44,0,0,1-3.19-1.67Zm12.79-22.47c-.28-.09-.76-.23-1.44-.4a13.23,13.23,0,0,0-3-.26,8.61,8.61,0,0,0-3.24.59,7.34,7.34,0,0,0-4.16,4.16,8.52,8.52,0,0,0-.59,3.2,11.11,11.11,0,0,0,.35,2.82,6.35,6.35,0,0,0,1.13,2.3,5.39,5.39,0,0,0,1.95,1.55,6.53,6.53,0,0,0,2.87.57,7.43,7.43,0,0,0,2.73-.47,5.38,5.38,0,0,0,1.92-1.25,5.07,5.07,0,0,0,1.13-1.74,5.47,5.47,0,0,0,.38-2Z"/><path class="cls-1" d="M876.09,625h4.75v4.74h-4.75Zm.28,8.65h4.23v21.86h-4.23Z"/><path class="cls-1" d="M900.25,637.14h-3.94v-3.52h3.94v-7.15h4.24v7.15h6.39v3.52h-6.39v10.77a5.85,5.85,0,0,0,.82,3.62,2.85,2.85,0,0,0,2.32,1,4.81,4.81,0,0,0,2-.38,6.24,6.24,0,0,0,1.59-1.13l1.93,2.59a8.07,8.07,0,0,1-6.2,2.49q-3.48,0-5.1-1.88c-1.09-1.26-1.63-3.21-1.63-5.88Z"/><path class="cls-1" d="M941.86,652.84a7.3,7.3,0,0,1-3.22,2.45,11,11,0,0,1-4.11.8,10.83,10.83,0,0,1-2.71-.35,7.09,7.09,0,0,1-2.44-1.18,6.07,6.07,0,0,1-1.79-2.12,6.78,6.78,0,0,1-.68-3.17,7,7,0,0,1,2.47-5.64c1.64-1.41,4-2.12,7.12-2.12.5,0,1,0,1.6,0l1.6.1,1.31.09c.38,0,.64.06.8.09V641a4,4,0,0,0-1.48-3.5,6.84,6.84,0,0,0-4-1.06,9.36,9.36,0,0,0-3.95.69,15.36,15.36,0,0,0-2.44,1.38l-2-2.86a10.14,10.14,0,0,1,1.37-1,11.43,11.43,0,0,1,1.88-.86,14.57,14.57,0,0,1,2.44-.66,17.27,17.27,0,0,1,3.15-.26,10,10,0,0,1,6.65,2,7.17,7.17,0,0,1,2.42,5.81v12.72c0,.76,0,1.41,0,2H942Zm-.05-7.71a6.61,6.61,0,0,0-.73-.11c-.36,0-.77-.09-1.24-.12l-1.51-.09c-.53,0-1.05,0-1.55,0a8.29,8.29,0,0,0-2.89.42,4.87,4.87,0,0,0-1.74,1.06,3.39,3.39,0,0,0-.87,1.41,5,5,0,0,0-.23,1.48,3.15,3.15,0,0,0,1.22,2.7,5.52,5.52,0,0,0,3.38.92,6.5,6.5,0,0,0,2.33-.42,6.69,6.69,0,0,0,1.95-1.13,5.66,5.66,0,0,0,1.36-1.65,3.88,3.88,0,0,0,.52-1.92Z"/><path class="cls-1" d="M963.39,624.12h4.23v31.36h-4.23Z"/></svg>